<?xml version="1.0" encoding="UTF-8"?>
<svg xmlns="http://www.w3.org/2000/svg" xmlns:xlink="http://www.w3.org/1999/xlink" width="512pt" height="512pt" viewBox="0 0 512 512" version="1.1">
<g id="surface1">
<path style=" stroke:none;fill-rule:nonzero;fill:rgb(100%,98.039216%,28.235294%);fill-opacity:1;" d="M 503.464844 324.265625 C 503.464844 423.234375 423.234375 503.464844 324.265625 503.464844 C 225.296875 503.464844 145.066406 423.234375 145.066406 324.265625 C 145.066406 225.296875 225.296875 145.066406 324.265625 145.066406 C 423.234375 145.066406 503.464844 225.296875 503.464844 324.265625 Z M 503.464844 324.265625 "/>
<path style=" stroke:none;fill-rule:nonzero;fill:rgb(98.823529%,91.764706%,25.882353%);fill-opacity:1;" d="M 490.921875 390.058594 C 464.8125 456.449219 400.042969 503.464844 324.265625 503.464844 C 225.28125 503.464844 145.066406 423.253906 145.066406 324.265625 C 145.066406 254.550781 184.832031 194.132812 242.945312 164.609375 C 234.628906 185.546875 230.371094 207.871094 230.398438 230.398438 C 230.398438 329.386719 310.613281 409.601562 409.601562 409.601562 C 438.871094 409.601562 466.515625 402.601562 490.921875 390.058594 Z M 490.921875 390.058594 "/>
<path style=" stroke:none;fill-rule:nonzero;fill:rgb(99.215686%,78.039216%,25.490196%);fill-opacity:1;" d="M 469.332031 324.265625 C 469.332031 404.386719 404.386719 469.332031 324.265625 469.332031 C 244.148438 469.332031 179.199219 404.386719 179.199219 324.265625 C 179.199219 244.148438 244.148438 179.199219 324.265625 179.199219 C 404.386719 179.199219 469.332031 244.148438 469.332031 324.265625 Z M 469.332031 324.265625 "/>
<path style=" stroke:none;fill-rule:nonzero;fill:rgb(93.72549%,67.843137%,10.588235%);fill-opacity:1;" d="M 409.601562 409.601562 C 310.628906 409.601562 230.398438 329.371094 230.398438 230.398438 C 230.398438 224.511719 230.722656 218.710938 231.277344 212.976562 C 199.464844 239.582031 179.199219 279.542969 179.199219 324.265625 C 179.199219 404.386719 244.148438 469.332031 324.265625 469.332031 C 373.957031 469.332031 417.773438 444.320312 443.914062 406.238281 C 432.609375 408.453125 421.117188 409.578125 409.601562 409.601562 Z M 409.601562 409.601562 "/>
<path style=" stroke:none;fill-rule:nonzero;fill:rgb(67.843137%,90.980392%,95.686275%);fill-opacity:1;" d="M 349.867188 8.535156 L 452.265625 8.535156 C 480.542969 8.535156 503.464844 31.457031 503.464844 59.734375 L 503.464844 128 C 503.464844 156.277344 480.542969 179.199219 452.265625 179.199219 L 384 179.199219 L 349.867188 230.398438 L 349.867188 179.199219 C 321.589844 179.199219 298.667969 156.277344 298.667969 128 L 298.667969 59.734375 C 298.667969 31.457031 321.589844 8.535156 349.867188 8.535156 Z M 349.867188 8.535156 "/>
<path style=" stroke:none;fill-rule:nonzero;fill:rgb(28.235294%,79.215686%,89.411765%);fill-opacity:1;" d="M 358.398438 76.800781 L 358.398438 8.535156 L 349.867188 8.535156 C 321.589844 8.535156 298.667969 31.457031 298.667969 59.734375 L 298.667969 128 C 298.667969 156.277344 321.589844 179.199219 349.867188 179.199219 L 349.867188 230.398438 L 384 179.199219 L 452.265625 179.199219 C 480.542969 179.199219 503.464844 156.277344 503.464844 128 L 409.601562 128 C 381.324219 128 358.398438 105.078125 358.398438 76.800781 Z M 358.398438 76.800781 "/>
<path style=" stroke:none;fill-rule:nonzero;fill:rgb(57.647059%,60%,60.392157%);fill-opacity:1;" d="M 354.132812 59.734375 L 375.464844 59.734375 C 375.464844 50.308594 383.109375 42.667969 392.535156 42.667969 L 409.601562 42.667969 C 419.027344 42.667969 426.667969 50.308594 426.667969 59.734375 L 448 59.734375 C 457.425781 59.734375 465.066406 67.375 465.066406 76.800781 L 465.066406 128 C 465.066406 137.425781 457.425781 145.066406 448 145.066406 L 354.132812 145.066406 C 344.707031 145.066406 337.066406 137.425781 337.066406 128 L 337.066406 76.800781 C 337.066406 67.375 344.707031 59.734375 354.132812 59.734375 Z M 354.132812 59.734375 "/>
<path style=" stroke:none;fill-rule:nonzero;fill:rgb(67.843137%,90.980392%,95.686275%);fill-opacity:1;" d="M 418.132812 102.398438 C 418.132812 111.824219 410.492188 119.464844 401.066406 119.464844 C 391.640625 119.464844 384 111.824219 384 102.398438 C 384 92.972656 391.640625 85.332031 401.066406 85.332031 C 410.492188 85.332031 418.132812 92.972656 418.132812 102.398438 Z M 418.132812 102.398438 "/>
<path style=" stroke:none;fill-rule:nonzero;fill:rgb(28.235294%,79.215686%,89.411765%);fill-opacity:1;" d="M 389 90.332031 C 384.5625 94.617188 382.785156 100.964844 384.347656 106.929688 C 385.910156 112.898438 390.566406 117.558594 396.535156 119.121094 C 402.503906 120.683594 408.847656 118.902344 413.132812 114.464844 Z M 389 90.332031 "/>
<path style=" stroke:none;fill-rule:nonzero;fill:rgb(39.607843%,41.960784%,46.27451%);fill-opacity:1;" d="M 358.398438 76.800781 L 358.398438 59.734375 L 354.132812 59.734375 C 344.707031 59.734375 337.066406 67.375 337.066406 76.800781 L 337.066406 128 C 337.066406 137.425781 344.707031 145.066406 354.132812 145.066406 L 448 145.066406 C 457.425781 145.066406 465.066406 137.425781 465.066406 128 L 409.601562 128 C 381.324219 128 358.398438 105.078125 358.398438 76.800781 Z M 358.398438 76.800781 "/>
<path style=" stroke:none;fill-rule:nonzero;fill:rgb(67.843137%,90.980392%,95.686275%);fill-opacity:1;" d="M 252.261719 192.265625 C 265.6875 176.804688 273.078125 157.011719 273.066406 136.535156 C 273.066406 89.402344 234.863281 51.199219 187.734375 51.199219 C 140.605469 51.199219 102.398438 89.402344 102.398438 136.535156 C 102.398438 183.664062 140.605469 221.867188 187.734375 221.867188 C 200.550781 221.855469 213.195312 218.941406 224.726562 213.34375 L 264.535156 230.398438 Z M 252.261719 192.265625 "/>
<path style=" stroke:none;fill-rule:nonzero;fill:rgb(99.215686%,78.039216%,25.490196%);fill-opacity:1;" d="M 187.734375 187.734375 L 145.066406 162.132812 L 145.066406 110.933594 L 187.734375 136.535156 Z M 187.734375 187.734375 "/>
<path style=" stroke:none;fill-rule:nonzero;fill:rgb(98.823529%,91.764706%,25.882353%);fill-opacity:1;" d="M 187.734375 187.734375 L 230.398438 162.132812 L 230.398438 110.933594 L 187.734375 136.535156 Z M 187.734375 187.734375 "/>
<path style=" stroke:none;fill-rule:nonzero;fill:rgb(100%,98.039216%,28.235294%);fill-opacity:1;" d="M 145.066406 110.933594 L 187.734375 136.535156 L 230.398438 110.933594 L 187.734375 85.332031 Z M 145.066406 110.933594 "/>
<path style=" stroke:none;fill-rule:nonzero;fill:rgb(28.235294%,79.215686%,89.411765%);fill-opacity:1;" d="M 257.289062 185.8125 C 243.664062 192.710938 228.605469 196.292969 213.332031 196.265625 C 161.492188 196.265625 119.464844 156.152344 119.464844 106.667969 C 119.464844 97.519531 120.917969 88.695312 123.589844 80.375 C 109.929688 95.894531 102.394531 115.859375 102.398438 136.535156 C 102.398438 183.664062 140.605469 221.867188 187.734375 221.867188 C 200.550781 221.855469 213.195312 218.941406 224.726562 213.34375 L 264.535156 230.398438 L 252.261719 192.265625 C 254.046875 190.199219 255.710938 188.039062 257.289062 185.8125 Z M 257.289062 185.8125 "/>
<path style=" stroke:none;fill-rule:nonzero;fill:rgb(91.372549%,94.509804%,94.901961%);fill-opacity:1;" d="M 179.199219 281.601562 L 179.199219 179.199219 C 179.199219 169.773438 171.558594 162.132812 162.132812 162.132812 L 25.601562 162.132812 C 16.175781 162.132812 8.535156 169.773438 8.535156 179.199219 L 8.535156 349.867188 C 8.535156 359.292969 16.175781 366.933594 25.601562 366.933594 L 162.132812 366.933594 C 171.558594 366.933594 179.199219 359.292969 179.199219 349.867188 L 179.199219 324.265625 L 221.867188 324.265625 Z M 179.199219 281.601562 "/>
<path style=" stroke:none;fill-rule:nonzero;fill:rgb(81.568627%,84.705882%,85.490196%);fill-opacity:1;" d="M 119.464844 281.601562 C 91.191406 281.601562 68.265625 258.675781 68.265625 230.398438 L 68.265625 162.132812 L 25.601562 162.132812 C 16.175781 162.132812 8.535156 169.773438 8.535156 179.199219 L 8.535156 349.867188 C 8.535156 359.292969 16.175781 366.933594 25.601562 366.933594 L 162.132812 366.933594 C 171.558594 366.933594 179.199219 359.292969 179.199219 349.867188 L 179.199219 324.265625 L 221.867188 324.265625 L 179.199219 281.601562 Z M 119.464844 281.601562 "/>
<path style=" stroke:none;fill-rule:nonzero;fill:rgb(28.235294%,79.215686%,89.411765%);fill-opacity:1;" d="M 42.667969 196.265625 L 145.066406 196.265625 L 145.066406 332.800781 L 42.667969 332.800781 Z M 42.667969 196.265625 "/>
<path style=" stroke:none;fill-rule:nonzero;fill:rgb(0%,70.588235%,84.705882%);fill-opacity:1;" d="M 119.464844 281.601562 C 91.191406 281.601562 68.265625 258.675781 68.265625 230.398438 L 68.265625 196.265625 L 42.667969 196.265625 L 42.667969 332.800781 L 145.066406 332.800781 L 145.066406 281.601562 Z M 119.464844 281.601562 "/>
<path style=" stroke:none;fill-rule:nonzero;fill:rgb(19.607843%,19.607843%,19.607843%);fill-opacity:1;" d="M 443.734375 324.265625 C 443.734375 328.980469 439.914062 332.800781 435.199219 332.800781 C 430.488281 332.800781 426.667969 328.980469 426.667969 324.265625 C 426.667969 319.554688 430.488281 315.734375 435.199219 315.734375 C 439.914062 315.734375 443.734375 319.554688 443.734375 324.265625 Z M 443.734375 324.265625 "/>
<path style=" stroke:none;fill-rule:nonzero;fill:rgb(19.607843%,19.607843%,19.607843%);fill-opacity:1;" d="M 281.601562 366.933594 C 286.308594 366.925781 290.125 363.109375 290.132812 358.398438 L 290.132812 290.132812 C 290.132812 285.421875 286.3125 281.601562 281.601562 281.601562 C 276.886719 281.601562 273.066406 285.421875 273.066406 290.132812 L 273.066406 322.253906 L 255.105469 286.320312 C 253.335938 282.773438 249.363281 280.910156 245.507812 281.820312 C 241.652344 282.730469 238.929688 286.171875 238.933594 290.132812 L 238.933594 358.398438 C 238.933594 363.113281 242.753906 366.933594 247.464844 366.933594 C 252.179688 366.933594 256 363.113281 256 358.398438 L 256 326.28125 L 273.960938 362.214844 C 275.410156 365.109375 278.367188 366.933594 281.601562 366.933594 Z M 349.867188 298.667969 C 354.578125 298.667969 358.398438 294.847656 358.398438 290.132812 C 358.398438 285.421875 354.578125 281.601562 349.867188 281.601562 L 315.734375 281.601562 C 311.019531 281.601562 307.199219 285.421875 307.199219 290.132812 L 307.199219 358.398438 C 307.199219 363.113281 311.019531 366.933594 315.734375 366.933594 C 320.445312 366.933594 324.265625 363.113281 324.265625 358.398438 L 324.265625 332.800781 L 341.332031 332.800781 C 346.046875 332.800781 349.867188 328.980469 349.867188 324.265625 C 349.867188 319.554688 346.046875 315.734375 341.332031 315.734375 L 324.265625 315.734375 L 324.265625 298.667969 Z M 401.066406 366.933594 C 405.78125 366.933594 409.601562 363.113281 409.601562 358.398438 L 409.601562 298.667969 L 418.132812 298.667969 C 422.847656 298.667969 426.667969 294.847656 426.667969 290.132812 C 426.667969 285.421875 422.847656 281.601562 418.132812 281.601562 L 384 281.601562 C 379.289062 281.601562 375.464844 285.421875 375.464844 290.132812 C 375.464844 294.847656 379.289062 298.667969 384 298.667969 L 392.535156 298.667969 L 392.535156 358.398438 C 392.535156 363.113281 396.355469 366.933594 401.066406 366.933594 Z M 319.53125 433.765625 C 322.398438 435.679688 326.136719 435.679688 329.003906 433.765625 L 380.203125 399.632812 C 383.902344 396.933594 384.816406 391.800781 382.277344 387.992188 C 379.734375 384.183594 374.640625 383.054688 370.730469 385.433594 L 324.265625 416.410156 L 277.800781 385.433594 C 273.882812 382.816406 268.582031 383.875 265.964844 387.796875 C 263.351562 391.71875 264.410156 397.019531 268.332031 399.632812 Z M 319.53125 433.765625 "/>
<path style=" stroke:none;fill-rule:nonzero;fill:rgb(19.607843%,19.607843%,19.607843%);fill-opacity:1;" d="M 512 128 L 512 59.734375 C 512 26.804688 485.207031 0 452.265625 0 C 447.554688 0 443.734375 3.820312 443.734375 8.535156 C 443.734375 13.246094 447.554688 17.066406 452.265625 17.066406 C 475.792969 17.066406 494.933594 36.207031 494.933594 59.734375 L 494.933594 128 C 494.933594 151.527344 475.792969 170.667969 452.265625 170.667969 L 384 170.667969 C 381.148438 170.667969 378.488281 172.089844 376.898438 174.464844 L 358.398438 202.214844 L 358.398438 179.199219 C 358.398438 174.488281 354.578125 170.667969 349.867188 170.667969 C 326.339844 170.667969 307.199219 151.527344 307.199219 128 L 307.199219 59.734375 C 307.199219 36.207031 326.339844 17.066406 349.867188 17.066406 L 418.132812 17.066406 C 422.847656 17.066406 426.667969 13.246094 426.667969 8.535156 C 426.667969 3.820312 422.847656 0 418.132812 0 L 349.867188 0 C 316.929688 0 290.132812 26.804688 290.132812 59.734375 L 290.132812 128 C 290.132812 144.492188 296.96875 160.246094 309.019531 171.511719 C 295.890625 172.832031 282.988281 175.835938 270.625 180.445312 C 277.820312 166.925781 281.589844 151.847656 281.601562 136.535156 C 281.601562 84.777344 239.488281 42.667969 187.734375 42.667969 C 169.324219 42.640625 151.324219 48.0625 135.996094 58.257812 C 132.070312 60.867188 131.003906 66.167969 133.613281 70.09375 C 136.226562 74.019531 141.523438 75.085938 145.449219 72.472656 C 157.976562 64.144531 172.691406 59.710938 187.734375 59.734375 C 230.074219 59.734375 264.535156 94.183594 264.535156 136.535156 C 264.53125 154.957031 257.882812 172.757812 245.800781 186.667969 C 243.847656 188.921875 243.210938 192.035156 244.121094 194.875 L 250.65625 215.175781 L 228.035156 205.492188 C 225.773438 204.515625 223.199219 204.570312 220.980469 205.644531 C 210.605469 210.632812 199.234375 213.207031 187.726562 213.179688 L 187.726562 196.265625 C 189.242188 196.265625 190.761719 195.855469 192.121094 195.046875 L 234.785156 169.445312 C 237.363281 167.910156 238.9375 165.132812 238.933594 162.132812 L 238.933594 110.933594 C 238.9375 107.9375 237.367188 105.160156 234.792969 103.621094 L 192.128906 78.019531 C 189.421875 76.410156 186.050781 76.410156 183.347656 78.019531 L 140.679688 103.621094 C 138.105469 105.15625 136.527344 107.933594 136.535156 110.933594 L 136.535156 153.601562 L 113.023438 153.601562 C 111.683594 148.007812 110.984375 142.28125 110.933594 136.535156 C 110.90625 121.488281 115.339844 106.769531 123.671875 94.242188 C 126.285156 90.316406 125.21875 85.015625 121.292969 82.40625 C 117.367188 79.796875 112.066406 80.863281 109.457031 84.789062 C 99.265625 100.117188 93.839844 118.125 93.867188 136.535156 C 93.867188 142.308594 94.582031 147.984375 95.625 153.601562 L 25.601562 153.601562 C 11.484375 153.601562 0 165.085938 0 179.199219 L 0 230.398438 C 0 235.113281 3.820312 238.933594 8.535156 238.933594 C 13.246094 238.933594 17.066406 235.113281 17.066406 230.398438 L 17.066406 179.199219 C 17.066406 174.488281 20.898438 170.667969 25.601562 170.667969 L 162.132812 170.667969 C 166.835938 170.667969 170.667969 174.488281 170.667969 179.199219 L 170.667969 281.601562 C 170.667969 283.871094 171.5625 286.039062 173.167969 287.632812 L 201.265625 315.734375 L 179.199219 315.734375 C 174.488281 315.734375 170.667969 319.554688 170.667969 324.265625 L 170.667969 349.867188 C 170.667969 354.578125 166.835938 358.398438 162.132812 358.398438 L 25.601562 358.398438 C 20.898438 358.398438 17.066406 354.578125 17.066406 349.867188 L 17.066406 264.535156 C 17.066406 259.820312 13.246094 256 8.535156 256 C 3.820312 256 0 259.820312 0 264.535156 L 0 349.867188 C 0 363.980469 11.484375 375.464844 25.601562 375.464844 L 143.992188 375.464844 C 166.800781 456.15625 239.890625 512 324.265625 512 C 427.785156 512 512 427.785156 512 324.265625 C 511.960938 280.703125 496.761719 238.515625 469.007812 204.9375 C 466.003906 201.304688 460.625 200.796875 456.992188 203.800781 C 453.363281 206.804688 452.855469 212.183594 455.859375 215.816406 C 481.085938 246.328125 494.902344 284.675781 494.933594 324.265625 C 494.933594 418.371094 418.371094 494.933594 324.265625 494.933594 C 249.765625 495.03125 183.882812 446.601562 161.742188 375.464844 L 162.132812 375.464844 C 168.03125 375.464844 173.40625 373.382812 177.730469 370.015625 C 197.367188 432.339844 255.863281 477.867188 324.265625 477.867188 C 359.21875 477.867188 392.097656 466.457031 419.335938 444.875 C 423.03125 441.949219 423.652344 436.582031 420.726562 432.886719 C 417.800781 429.195312 412.433594 428.570312 408.738281 431.496094 C 384.539062 450.664062 355.335938 460.800781 324.265625 460.800781 C 252.210938 460.800781 192.640625 403.960938 188.175781 332.800781 L 221.867188 332.800781 C 225.316406 332.800781 228.429688 330.71875 229.75 327.53125 C 231.070312 324.34375 230.339844 320.675781 227.898438 318.234375 L 193.953125 284.289062 C 200.84375 261.730469 213.496094 241.359375 230.664062 225.1875 L 261.171875 238.242188 C 264.246094 239.566406 267.808594 238.964844 270.277344 236.707031 C 272.746094 234.453125 273.675781 230.964844 272.648438 227.78125 L 264.25 201.710938 C 282.929688 192.539062 303.457031 187.761719 324.265625 187.734375 C 329.769531 187.734375 335.460938 188.253906 341.332031 189.023438 L 341.332031 222.984375 L 329.003906 214.757812 C 326.140625 212.835938 322.402344 212.835938 319.539062 214.757812 L 268.339844 248.890625 C 264.640625 251.589844 263.726562 256.722656 266.265625 260.535156 C 268.808594 264.34375 273.898438 265.46875 277.8125 263.089844 L 324.265625 232.125 L 370.730469 263.101562 C 374.65625 265.695312 379.941406 264.640625 382.566406 260.734375 C 385.175781 256.8125 384.121094 251.519531 380.203125 248.898438 L 357.761719 233.941406 L 380.375 200.019531 C 429.320312 222.121094 460.800781 270.457031 460.800781 324.265625 C 460.800781 355.34375 450.664062 384.546875 431.496094 408.730469 C 428.570312 412.425781 429.191406 417.792969 432.886719 420.71875 C 436.582031 423.648438 441.949219 423.023438 444.875 419.328125 C 466.457031 392.097656 477.867188 359.226562 477.867188 324.265625 C 477.910156 266.679688 445.652344 213.929688 394.367188 187.734375 L 452.265625 187.734375 C 485.207031 187.734375 512 160.929688 512 128 Z M 204.175781 228.855469 C 197.867188 236.753906 192.359375 245.261719 187.734375 254.25 L 187.734375 230.230469 C 193.246094 230.261719 198.746094 229.800781 204.175781 228.855469 Z M 196.265625 172.664062 L 196.265625 141.371094 L 221.867188 126.011719 L 221.867188 157.304688 Z M 187.734375 95.28125 L 213.8125 110.933594 L 187.734375 126.582031 L 161.65625 110.933594 Z M 162.132812 153.601562 L 153.601562 153.601562 L 153.601562 126.003906 L 179.199219 141.363281 L 179.199219 160.257812 C 174.535156 155.996094 168.453125 153.621094 162.132812 153.601562 Z M 162.132812 153.601562 "/>
<path style=" stroke:none;fill-rule:nonzero;fill:rgb(19.607843%,19.607843%,19.607843%);fill-opacity:1;" d="M 392.535156 34.132812 C 381.6875 34.148438 372.023438 40.980469 368.390625 51.199219 L 354.132812 51.199219 C 340.019531 51.199219 328.535156 62.6875 328.535156 76.800781 L 328.535156 128 C 328.535156 142.113281 340.019531 153.601562 354.132812 153.601562 L 448 153.601562 C 462.113281 153.601562 473.601562 142.113281 473.601562 128 L 473.601562 76.800781 C 473.601562 62.6875 462.113281 51.199219 448 51.199219 L 433.742188 51.199219 C 430.109375 40.980469 420.445312 34.148438 409.601562 34.132812 Z M 418.132812 59.734375 C 418.132812 64.445312 421.953125 68.265625 426.667969 68.265625 L 448 68.265625 C 452.703125 68.265625 456.535156 72.089844 456.535156 76.800781 L 456.535156 128 C 456.535156 132.710938 452.703125 136.535156 448 136.535156 L 354.132812 136.535156 C 349.429688 136.535156 345.601562 132.710938 345.601562 128 L 345.601562 76.800781 C 345.601562 72.089844 349.429688 68.265625 354.132812 68.265625 L 375.464844 68.265625 C 380.179688 68.265625 384 64.445312 384 59.734375 C 384 55.023438 387.832031 51.199219 392.535156 51.199219 L 409.601562 51.199219 C 414.300781 51.199219 418.132812 55.023438 418.132812 59.734375 Z M 418.132812 59.734375 "/>
<path style=" stroke:none;fill-rule:nonzero;fill:rgb(19.607843%,19.607843%,19.607843%);fill-opacity:1;" d="M 375.464844 102.398438 C 375.464844 116.515625 386.953125 128 401.066406 128 C 415.179688 128 426.667969 116.515625 426.667969 102.398438 C 426.667969 88.285156 415.179688 76.800781 401.066406 76.800781 C 386.953125 76.800781 375.464844 88.285156 375.464844 102.398438 Z M 409.601562 102.398438 C 409.394531 106.964844 405.636719 110.558594 401.066406 110.558594 C 396.496094 110.558594 392.738281 106.964844 392.535156 102.398438 C 392.738281 97.835938 396.496094 94.238281 401.066406 94.238281 C 405.636719 94.238281 409.394531 97.835938 409.601562 102.398438 Z M 145.066406 341.332031 C 149.78125 341.332031 153.601562 337.511719 153.601562 332.800781 L 153.601562 196.265625 C 153.601562 191.554688 149.78125 187.734375 145.066406 187.734375 L 42.667969 187.734375 C 37.953125 187.734375 34.132812 191.554688 34.132812 196.265625 L 34.132812 332.800781 C 34.132812 337.511719 37.953125 341.332031 42.667969 341.332031 Z M 51.199219 204.800781 L 136.535156 204.800781 L 136.535156 324.265625 L 51.199219 324.265625 Z M 51.199219 204.800781 "/>
<path style=" stroke:none;fill-rule:nonzero;fill:rgb(19.607843%,19.607843%,19.607843%);fill-opacity:1;" d="M 110.933594 221.867188 L 93.867188 221.867188 C 89.152344 221.867188 85.332031 225.6875 85.332031 230.398438 C 85.332031 235.113281 89.152344 238.933594 93.867188 238.933594 L 110.933594 238.933594 C 115.644531 238.933594 119.464844 235.113281 119.464844 230.398438 C 119.464844 225.6875 115.644531 221.867188 110.933594 221.867188 Z M 110.933594 256 L 76.800781 256 C 72.085938 256 68.265625 259.820312 68.265625 264.535156 C 68.265625 269.246094 72.085938 273.066406 76.800781 273.066406 L 110.933594 273.066406 C 115.644531 273.066406 119.464844 269.246094 119.464844 264.535156 C 119.464844 259.820312 115.644531 256 110.933594 256 Z M 110.933594 290.132812 L 76.800781 290.132812 C 72.085938 290.132812 68.265625 293.953125 68.265625 298.667969 C 68.265625 303.378906 72.085938 307.199219 76.800781 307.199219 L 110.933594 307.199219 C 115.644531 307.199219 119.464844 303.378906 119.464844 298.667969 C 119.464844 293.953125 115.644531 290.132812 110.933594 290.132812 Z M 110.933594 290.132812 "/>
</g>
</svg>
