<?xml version="1.0" encoding="UTF-8"?>
<svg xmlns="http://www.w3.org/2000/svg" xmlns:xlink="http://www.w3.org/1999/xlink" width="512pt" height="512pt" viewBox="0 0 512 512" version="1.1">
<g id="surface3">
<path style=" stroke:none;fill-rule:nonzero;fill:rgb(73.72549%,73.333333%,74.509804%);fill-opacity:1;" d="M 328.003906 416.007812 L 328.003906 496.007812 C 328.003906 500.425781 331.585938 504.007812 336.003906 504.007812 L 464.003906 504.007812 C 468.421875 504.007812 472.003906 500.425781 472.003906 496.007812 L 472.003906 464.007812 L 504.003906 464.007812 L 504.003906 376.007812 L 472.003906 344.007812 L 440.003906 344.007812 L 432.003906 376.007812 L 408.164062 370.085938 L 416.003906 456.007812 L 400.003906 472.007812 L 384.003906 456.007812 L 391.84375 370.085938 L 368.003906 376.007812 L 360.003906 344.007812 L 336.003906 344.007812 L 312.003906 320.007812 L 282.5625 208.007812 L 240.324219 208.007812 L 241.203125 212.007812 L 264.484375 324.007812 L 272.003906 360.007812 Z M 328.003906 416.007812 "/>
<path style=" stroke:none;fill-rule:nonzero;fill:rgb(100%,85.490196%,66.666667%);fill-opacity:1;" d="M 472.003906 464.007812 L 472.003906 496.007812 C 472.003906 500.425781 468.421875 504.007812 464.003906 504.007812 L 472.003906 504.007812 C 489.675781 504.007812 504.003906 489.679688 504.003906 472.007812 L 504.003906 464.007812 Z M 472.003906 464.007812 "/>
<path style=" stroke:none;fill-rule:nonzero;fill:rgb(47.45098%,47.058824%,49.019608%);fill-opacity:1;" d="M 472.003906 384.007812 L 488.003906 384.007812 L 488.003906 464.007812 L 472.003906 464.007812 Z M 472.003906 384.007812 "/>
<path style=" stroke:none;fill-rule:nonzero;fill:rgb(100%,71.372549%,50.196078%);fill-opacity:1;" d="M 491.605469 464.007812 C 490.179688 475.457031 482.6875 485.246094 472.003906 489.605469 L 472.003906 496.007812 C 472.003906 500.425781 468.421875 504.007812 464.003906 504.007812 L 472.003906 504.007812 C 489.675781 504.007812 504.003906 489.679688 504.003906 472.007812 L 504.003906 464.007812 Z M 491.605469 464.007812 "/>
<path style=" stroke:none;fill-rule:nonzero;fill:rgb(47.45098%,47.058824%,49.019608%);fill-opacity:1;" d="M 328.003906 416.007812 L 328.003906 376.007812 L 288.003906 336.007812 L 256.003906 208.007812 L 240.003906 208.007812 L 272.003906 360.007812 Z M 328.003906 416.007812 "/>
<path style=" stroke:none;fill-rule:nonzero;fill:rgb(99.607843%,98.823529%,100%);fill-opacity:1;" d="M 368.003906 344.007812 L 368.003906 432.007812 L 400.003906 472.007812 L 432.003906 432.007812 L 432.003906 344.007812 Z M 368.003906 344.007812 "/>
<path style=" stroke:none;fill-rule:nonzero;fill:rgb(47.45098%,47.058824%,49.019608%);fill-opacity:1;" d="M 368.003906 408.007812 L 368.003906 432.007812 L 400.003906 472.007812 L 432.003906 432.007812 L 432.003906 408.007812 L 400.003906 448.007812 Z M 368.003906 408.007812 "/>
<path style=" stroke:none;fill-rule:nonzero;fill:rgb(100%,85.490196%,66.666667%);fill-opacity:1;" d="M 232.003906 168.007812 L 240.324219 208.007812 L 282.5625 208.007812 L 272.003906 168.007812 Z M 232.003906 168.007812 "/>
<path style=" stroke:none;fill-rule:nonzero;fill:rgb(100%,71.372549%,50.196078%);fill-opacity:1;" d="M 251.332031 168.007812 L 256.324219 192.007812 L 278.339844 192.007812 L 282.5625 208.007812 L 240.324219 208.007812 L 232.003906 168.007812 Z M 251.332031 168.007812 "/>
<path style=" stroke:none;fill-rule:nonzero;fill:rgb(69.411765%,93.333333%,100%);fill-opacity:1;" d="M 424.003906 344.007812 L 400.003906 368.007812 L 408.164062 370.085938 L 432.003906 376.007812 L 440.003906 344.007812 Z M 400.003906 368.007812 L 376.003906 344.007812 L 360.003906 344.007812 L 368.003906 376.007812 L 391.84375 370.085938 Z M 391.84375 370.085938 L 384.003906 456.007812 L 400.003906 472.007812 L 416.003906 456.007812 L 408.164062 370.085938 L 400.003906 368.007812 Z M 391.84375 370.085938 "/>
<path style=" stroke:none;fill-rule:nonzero;fill:rgb(69.803922%,36.862745%,11.764706%);fill-opacity:1;" d="M 336.003906 168.007812 L 352.003906 200.007812 L 336.003906 208.007812 L 352.003906 232.007812 L 392.003906 232.007812 L 424.003906 200.007812 L 448.003906 224.007812 L 464.003906 208.007812 L 464.003906 192.007812 L 440.003906 168.007812 Z M 336.003906 168.007812 "/>
<path style=" stroke:none;fill-rule:nonzero;fill:rgb(100%,71.372549%,50.196078%);fill-opacity:1;" d="M 448.003906 240.007812 L 448.003906 280.007812 C 448.007812 282.664062 447.769531 285.316406 447.285156 287.925781 L 448.003906 288.007812 C 461.257812 288.007812 472.003906 277.261719 472.003906 264.007812 C 472.003906 250.753906 461.257812 240.007812 448.003906 240.007812 Z M 328.003906 264.007812 C 328.003906 277.261719 338.75 288.007812 352.003906 288.007812 L 352.722656 287.925781 C 352.238281 285.316406 351.996094 282.664062 352.003906 280.007812 L 352.003906 240.007812 C 338.75 240.007812 328.003906 250.753906 328.003906 264.007812 Z M 376.003906 321.527344 L 376.003906 344.007812 L 400.003906 368.007812 L 424.003906 344.007812 L 424.003906 321.527344 C 409.171875 330.167969 390.835938 330.167969 376.003906 321.527344 Z M 376.003906 321.527344 "/>
<path style=" stroke:none;fill-rule:nonzero;fill:rgb(100%,85.490196%,66.666667%);fill-opacity:1;" d="M 376.003906 321.527344 C 390.835938 330.167969 409.171875 330.167969 424.003906 321.527344 C 436.433594 314.410156 444.988281 302.0625 447.285156 287.925781 C 447.769531 285.316406 448.007812 282.664062 448.003906 280.007812 L 448.003906 224.007812 L 424.003906 200.007812 L 392.003906 232.007812 L 352.003906 232.007812 L 352.003906 280.007812 C 351.996094 282.664062 352.238281 285.316406 352.722656 287.925781 C 354.292969 297.792969 358.972656 306.90625 366.082031 313.925781 C 369.027344 316.898438 372.367188 319.457031 376.003906 321.527344 Z M 376.003906 321.527344 "/>
<path style=" stroke:none;fill-rule:nonzero;fill:rgb(76.862745%,38.823529%,13.333333%);fill-opacity:1;" d="M 336.003906 168.007812 L 440.003906 168.007812 L 460.003906 188.007812 L 356.003906 188.007812 L 372.003906 220.007812 L 356.003906 228.007812 L 358.667969 232.007812 L 352.003906 232.007812 L 336.003906 208.007812 L 352.003906 200.007812 Z M 336.003906 168.007812 "/>
<path style=" stroke:none;fill-rule:nonzero;fill:rgb(92.156863%,59.215686%,36.470588%);fill-opacity:1;" d="M 400.003906 328.007812 C 408.441406 328.046875 416.734375 325.808594 424.003906 321.527344 L 424.003906 337.527344 C 409.171875 346.167969 390.835938 346.167969 376.003906 337.527344 L 376.003906 321.527344 C 383.273438 325.808594 391.566406 328.046875 400.003906 328.007812 Z M 392.003906 232.007812 L 424.003906 200.007812 L 448.003906 224.007812 L 448.003906 248.007812 L 424.003906 224.007812 L 392.003906 256.007812 L 352.003906 256.007812 L 352.003906 232.007812 Z M 392.003906 232.007812 "/>
<path style=" stroke:none;fill-rule:nonzero;fill:rgb(58.823529%,90.980392%,100%);fill-opacity:1;" d="M 391.84375 370.085938 L 400.003906 368.007812 L 400.003906 472.007812 L 384.003906 456.007812 Z M 391.84375 370.085938 "/>
<path style=" stroke:none;fill-rule:nonzero;fill:rgb(69.411765%,93.333333%,100%);fill-opacity:1;" d="M 160.003906 72.007812 L 144.003906 96.007812 L 152.003906 128.007812 L 120.003906 112.007812 L 88.003906 128.007812 L 96.003906 96.007812 L 80.003906 72.007812 L 104.003906 72.007812 L 120.003906 48.007812 L 136.003906 72.007812 Z M 432.003906 72.007812 L 416.003906 96.007812 L 424.003906 128.007812 L 392.003906 112.007812 L 360.003906 128.007812 L 368.003906 96.007812 L 352.003906 72.007812 L 376.003906 72.007812 L 392.003906 48.007812 L 408.003906 72.007812 Z M 320.003906 48.007812 L 280.003906 72.007812 L 304.003906 120.007812 L 256.003906 88.007812 L 208.003906 120.007812 L 232.003906 72.007812 L 192.003906 48.007812 L 240.003906 48.007812 L 256.003906 8.007812 L 272.003906 48.007812 Z M 320.003906 48.007812 "/>
<path style=" stroke:none;fill-rule:nonzero;fill:rgb(100%,85.490196%,66.666667%);fill-opacity:1;" d="M 280.003906 168.007812 L 271.683594 208.007812 L 229.445312 208.007812 L 240.003906 168.007812 Z M 280.003906 168.007812 "/>
<path style=" stroke:none;fill-rule:nonzero;fill:rgb(100%,71.372549%,50.196078%);fill-opacity:1;" d="M 260.675781 168.007812 L 255.683594 192.007812 L 233.667969 192.007812 L 229.445312 208.007812 L 271.683594 208.007812 L 280.003906 168.007812 Z M 260.675781 168.007812 "/>
<path style=" stroke:none;fill-rule:nonzero;fill:rgb(99.607843%,98.823529%,100%);fill-opacity:1;" d="M 184.003906 416.007812 L 184.003906 496.007812 C 184.003906 500.425781 180.421875 504.007812 176.003906 504.007812 L 48.003906 504.007812 C 43.585938 504.007812 40.003906 500.425781 40.003906 496.007812 L 40.003906 464.007812 L 8.003906 464.007812 L 8.003906 376.007812 L 40.003906 344.007812 L 72.003906 344.007812 L 80.003906 376.007812 L 103.84375 370.085938 L 96.003906 456.007812 L 112.003906 472.007812 L 128.003906 456.007812 L 120.164062 370.085938 L 144.003906 376.007812 L 152.003906 344.007812 L 176.003906 344.007812 L 200.003906 320.007812 L 229.445312 208.007812 L 271.683594 208.007812 L 270.804688 212.007812 L 247.523438 324.007812 L 240.003906 360.007812 Z M 184.003906 416.007812 "/>
<path style=" stroke:none;fill-rule:nonzero;fill:rgb(69.411765%,93.333333%,100%);fill-opacity:1;" d="M 88.003906 344.007812 L 112.003906 368.007812 L 103.84375 370.085938 L 80.003906 376.007812 L 72.003906 344.007812 Z M 112.003906 368.007812 L 136.003906 344.007812 L 152.003906 344.007812 L 144.003906 376.007812 L 120.164062 370.085938 Z M 120.164062 370.085938 L 128.003906 456.007812 L 112.003906 472.007812 L 96.003906 456.007812 L 103.84375 370.085938 L 112.003906 368.007812 Z M 120.164062 370.085938 "/>
<path style=" stroke:none;fill-rule:nonzero;fill:rgb(38.431373%,38.039216%,41.176471%);fill-opacity:1;" d="M 176.003906 168.007812 L 160.003906 200.007812 L 176.003906 208.007812 L 160.003906 232.007812 L 120.003906 232.007812 L 88.003906 200.007812 L 64.003906 224.007812 L 48.003906 208.007812 L 48.003906 192.007812 L 72.003906 168.007812 Z M 176.003906 168.007812 "/>
<path style=" stroke:none;fill-rule:nonzero;fill:rgb(100%,71.372549%,50.196078%);fill-opacity:1;" d="M 64.003906 240.007812 L 64.003906 280.007812 C 63.996094 282.664062 64.238281 285.316406 64.722656 287.925781 L 64.003906 288.007812 C 50.75 288.007812 40.003906 277.261719 40.003906 264.007812 C 40.003906 250.753906 50.75 240.007812 64.003906 240.007812 Z M 184.003906 264.007812 C 184.003906 277.261719 173.257812 288.007812 160.003906 288.007812 L 159.285156 287.925781 C 159.769531 285.316406 160.007812 282.664062 160.003906 280.007812 L 160.003906 240.007812 C 173.257812 240.007812 184.003906 250.753906 184.003906 264.007812 Z M 136.003906 321.527344 L 136.003906 344.007812 L 112.003906 368.007812 L 88.003906 344.007812 L 88.003906 321.527344 C 102.835938 330.167969 121.171875 330.167969 136.003906 321.527344 Z M 136.003906 321.527344 "/>
<path style=" stroke:none;fill-rule:nonzero;fill:rgb(100%,85.490196%,66.666667%);fill-opacity:1;" d="M 136.003906 321.527344 C 121.171875 330.167969 102.835938 330.167969 88.003906 321.527344 C 75.574219 314.410156 67.019531 302.0625 64.722656 287.925781 C 64.238281 285.316406 63.996094 282.664062 64.003906 280.007812 L 64.003906 224.007812 L 88.003906 200.007812 L 120.003906 232.007812 L 160.003906 232.007812 L 160.003906 280.007812 C 160.007812 282.664062 159.769531 285.316406 159.285156 287.925781 C 157.714844 297.796875 153.035156 306.90625 145.921875 313.925781 C 142.976562 316.898438 139.640625 319.457031 136.003906 321.527344 Z M 136.003906 321.527344 "/>
<path style=" stroke:none;fill-rule:nonzero;fill:rgb(47.45098%,47.058824%,49.019608%);fill-opacity:1;" d="M 176.003906 168.007812 L 72.003906 168.007812 L 52.003906 188.007812 L 156.003906 188.007812 L 140.003906 220.007812 L 156.003906 228.007812 L 153.339844 232.007812 L 160.003906 232.007812 L 176.003906 208.007812 L 160.003906 200.007812 Z M 176.003906 168.007812 "/>
<path style=" stroke:none;fill-rule:nonzero;fill:rgb(92.156863%,59.215686%,36.470588%);fill-opacity:1;" d="M 112.003906 328.007812 C 103.566406 328.046875 95.273438 325.808594 88.003906 321.527344 L 88.003906 337.527344 C 102.835938 346.167969 121.171875 346.167969 136.003906 337.527344 L 136.003906 321.527344 C 128.734375 325.808594 120.441406 328.046875 112.003906 328.007812 Z M 120.003906 232.007812 L 88.003906 200.007812 L 64.003906 224.007812 L 64.003906 248.007812 L 88.003906 224.007812 L 120.003906 256.007812 L 160.003906 256.007812 L 160.003906 232.007812 Z M 120.003906 232.007812 "/>
<path style=" stroke:none;fill-rule:nonzero;fill:rgb(58.823529%,90.980392%,100%);fill-opacity:1;" d="M 120.164062 370.085938 L 112.003906 368.007812 L 112.003906 472.007812 L 128.003906 456.007812 Z M 120.164062 370.085938 "/>
<path style=" stroke:none;fill-rule:nonzero;fill:rgb(100%,85.490196%,66.666667%);fill-opacity:1;" d="M 40.003906 464.007812 L 40.003906 496.007812 C 40.003906 500.425781 43.585938 504.007812 48.003906 504.007812 L 40.003906 504.007812 C 22.332031 504.007812 8.003906 489.679688 8.003906 472.007812 L 8.003906 464.007812 Z M 40.003906 464.007812 "/>
<path style=" stroke:none;fill-rule:nonzero;fill:rgb(87.058824%,86.666667%,87.45098%);fill-opacity:1;" d="M 24.003906 384.007812 L 40.003906 384.007812 L 40.003906 464.007812 L 24.003906 464.007812 Z M 24.003906 384.007812 "/>
<path style=" stroke:none;fill-rule:nonzero;fill:rgb(100%,71.372549%,50.196078%);fill-opacity:1;" d="M 20.402344 464.007812 C 21.824219 475.457031 29.320312 485.246094 40.003906 489.605469 L 40.003906 496.007812 C 40.003906 500.425781 43.585938 504.007812 48.003906 504.007812 L 40.003906 504.007812 C 22.332031 504.007812 8.003906 489.679688 8.003906 472.007812 L 8.003906 464.007812 Z M 20.402344 464.007812 "/>
<path style=" stroke:none;fill-rule:nonzero;fill:rgb(87.058824%,86.666667%,87.45098%);fill-opacity:1;" d="M 184.003906 416.007812 L 184.003906 376.007812 L 224.003906 336.007812 L 256.003906 208.007812 L 272.003906 208.007812 L 240.003906 360.007812 Z M 184.003906 416.007812 "/>
<path style=" stroke:none;fill-rule:nonzero;fill:rgb(14.117647%,7.45098%,10.196078%);fill-opacity:1;" d="M 286.203125 162.960938 C 284.6875 161.09375 282.410156 160.007812 280.003906 160.007812 L 240.003906 160.007812 C 236.371094 160.007812 233.195312 162.457031 232.269531 165.96875 L 192.804688 315.878906 L 172.691406 336.007812 L 144.003906 336.007812 L 144.003906 325.808594 C 154.632812 318.589844 162.324219 307.804688 165.691406 295.40625 C 180.335938 292.816406 191.242188 280.4375 191.964844 265.582031 C 192.6875 250.726562 183.039062 237.347656 168.714844 233.34375 L 182.660156 212.421875 C 183.933594 210.511719 184.328125 208.144531 183.738281 205.925781 C 183.148438 203.707031 181.632812 201.847656 179.578125 200.824219 L 170.738281 196.40625 L 183.203125 171.582031 C 184.445312 169.09375 184.308594 166.140625 182.839844 163.78125 C 181.371094 161.421875 178.78125 159.992188 176.003906 160.007812 L 72.003906 160.007812 C 69.882812 160.007812 67.847656 160.851562 66.347656 162.351562 L 42.347656 186.351562 C 40.847656 187.851562 40.003906 189.886719 40.003906 192.007812 L 40.003906 208.007812 C 40.003906 210.128906 40.847656 212.164062 42.347656 213.664062 L 56.003906 227.320312 L 56.003906 233.144531 C 41.480469 236.859375 31.507812 250.183594 32.035156 265.164062 C 32.5625 280.144531 43.449219 292.738281 58.195312 295.421875 C 61.683594 307.808594 69.398438 318.582031 80.003906 325.871094 L 80.003906 336.007812 L 40.003906 336.007812 C 37.882812 336.007812 35.847656 336.851562 34.347656 338.351562 L 2.347656 370.351562 C 0.847656 371.851562 0.00390625 373.886719 0.00390625 376.007812 L 0.00390625 472.007812 C 0.03125 494.085938 17.921875 511.980469 40.003906 512.007812 L 176.003906 512.007812 C 184.839844 512.007812 192.003906 504.84375 192.003906 496.007812 L 192.003906 419.320312 L 245.660156 365.664062 C 246.757812 364.570312 247.511719 363.179688 247.835938 361.664062 L 287.835938 169.664062 C 288.332031 167.296875 287.734375 164.832031 286.203125 162.960938 Z M 246.203125 176.007812 L 270.203125 176.007812 L 265.203125 200.007812 L 239.851562 200.007812 Z M 119.699219 453 L 112.003906 460.695312 L 104.308594 453 L 111.300781 376.429688 L 112.003906 376.253906 L 112.738281 376.4375 Z M 84.691406 352.007812 L 96.363281 363.679688 L 85.828125 366.320312 L 82.242188 352.007812 Z M 96.003906 333.605469 C 106.429688 336.8125 117.578125 336.8125 128.003906 333.605469 L 128.003906 340.695312 L 112.003906 356.695312 L 96.003906 340.695312 Z M 127.644531 363.6875 L 139.316406 352.007812 L 141.765625 352.007812 L 138.179688 366.320312 Z M 176.003906 264.007812 C 175.988281 269.699219 172.9375 274.949219 168.003906 277.785156 L 168.003906 250.230469 C 172.9375 253.066406 175.988281 258.316406 176.003906 264.007812 Z M 48.003906 264.007812 C 48.019531 258.316406 51.070312 253.066406 56.003906 250.230469 L 56.003906 277.785156 C 51.070312 274.949219 48.019531 269.699219 48.003906 264.007812 Z M 56.003906 204.695312 L 56.003906 195.320312 L 75.316406 176.007812 L 163.058594 176.007812 L 152.84375 196.429688 C 150.867188 200.386719 152.472656 205.195312 156.425781 207.167969 L 164.324219 211.113281 L 155.722656 224.007812 L 123.316406 224.007812 L 93.660156 194.351562 C 90.535156 191.226562 85.472656 191.226562 82.347656 194.351562 L 64.003906 212.695312 Z M 72.585938 286.472656 C 72.195312 284.339844 72 282.175781 72.003906 280.007812 L 72.003906 227.320312 L 88.003906 211.320312 L 114.347656 237.664062 C 115.847656 239.164062 117.882812 240.007812 120.003906 240.007812 L 152.003906 240.007812 L 152.003906 280.007812 C 152.003906 282.242188 151.796875 284.472656 151.386719 286.671875 C 150.09375 294.878906 146.195312 302.449219 140.269531 308.269531 C 137.800781 310.78125 134.996094 312.933594 131.933594 314.671875 C 119.574219 321.835938 104.320312 321.816406 91.980469 314.617188 C 81.5625 308.683594 74.421875 298.320312 72.585938 286.472656 Z M 16.003906 472.007812 L 32.003906 472.007812 L 32.003906 494.535156 C 22.449219 491.15625 16.046875 482.140625 16.003906 472.007812 Z M 232.660156 356.007812 L 192.003906 396.695312 L 192.003906 384.007812 L 176.003906 384.007812 L 176.003906 496.007812 L 48.003906 496.007812 L 48.003906 384.007812 L 32.003906 384.007812 L 32.003906 456.007812 L 16.003906 456.007812 L 16.003906 379.320312 L 43.316406 352.007812 L 65.765625 352.007812 L 72.242188 377.945312 C 73.132812 381.507812 76.332031 384.007812 80.003906 384.007812 C 80.65625 384.003906 81.304688 383.925781 81.941406 383.773438 L 94.84375 380.574219 L 88.003906 455.28125 C 87.785156 457.652344 88.632812 459.996094 90.316406 461.679688 L 106.316406 477.679688 C 109.441406 480.800781 114.503906 480.800781 117.628906 477.679688 L 133.628906 461.679688 C 135.3125 459.996094 136.160156 457.652344 135.941406 455.28125 L 129.117188 380.542969 L 142.042969 383.742188 C 142.683594 383.90625 143.34375 383.996094 144.003906 384.007812 C 147.671875 384.003906 150.867188 381.503906 151.753906 377.945312 L 158.242188 352.007812 L 176.003906 352.007812 C 178.125 352.007812 180.160156 351.164062 181.660156 349.664062 L 205.660156 325.664062 C 206.660156 324.660156 207.378906 323.410156 207.738281 322.039062 L 235.644531 216.007812 L 261.835938 216.007812 Z M 509.660156 370.351562 L 477.660156 338.351562 C 476.160156 336.851562 474.125 336.007812 472.003906 336.007812 L 432.003906 336.007812 L 432.003906 325.863281 C 442.617188 318.578125 450.339844 307.804688 453.828125 295.414062 C 468.578125 292.734375 479.46875 280.136719 479.992188 265.15625 C 480.515625 250.171875 470.53125 236.847656 456.003906 233.144531 L 456.003906 227.320312 L 469.660156 213.664062 C 471.160156 212.164062 472.003906 210.128906 472.003906 208.007812 L 472.003906 192.007812 C 472.003906 189.886719 471.160156 187.851562 469.660156 186.351562 L 445.660156 162.351562 C 444.160156 160.851562 442.125 160.007812 440.003906 160.007812 L 336.003906 160.007812 C 333.222656 159.992188 330.636719 161.421875 329.167969 163.78125 C 327.699219 166.140625 327.5625 169.09375 328.804688 171.582031 L 341.226562 196.429688 L 332.386719 200.847656 C 330.332031 201.871094 328.816406 203.734375 328.230469 205.953125 C 327.640625 208.171875 328.03125 210.539062 329.308594 212.449219 L 343.25 233.367188 C 328.929688 237.371094 319.28125 250.753906 320.007812 265.609375 C 320.730469 280.464844 331.636719 292.839844 346.285156 295.429688 C 348.800781 304.570312 353.660156 312.898438 360.386719 319.582031 C 362.726562 321.875 365.261719 323.960938 367.964844 325.808594 L 367.964844 336.007812 L 339.316406 336.007812 L 319.316406 316.007812 L 297.90625 214.359375 L 282.25 217.65625 L 304.171875 321.65625 C 304.496094 323.171875 305.253906 324.558594 306.347656 325.65625 L 330.347656 349.65625 C 331.847656 351.160156 333.882812 352.003906 336.003906 352.007812 L 353.765625 352.007812 L 360.003906 376.976562 L 360.003906 432.007812 C 360.003906 433.824219 360.621094 435.589844 361.753906 437.007812 L 376.066406 454.902344 L 376.066406 455.296875 L 376.445312 455.296875 L 392.003906 474.824219 L 392.003906 496.007812 L 336.003906 496.007812 L 336.003906 384.007812 L 320.003906 384.007812 L 320.003906 396.695312 L 279.476562 356.167969 L 274.53125 326.6875 L 258.753906 329.328125 L 264.117188 361.328125 C 264.390625 362.96875 265.171875 364.484375 266.347656 365.664062 L 320.003906 419.320312 L 320.003906 496.007812 C 320.003906 504.84375 327.167969 512.007812 336.003906 512.007812 L 472.003906 512.007812 C 494.085938 511.980469 511.976562 494.085938 512.003906 472.007812 L 512.003906 376.007812 C 512.003906 373.886719 511.160156 371.851562 509.660156 370.351562 Z M 400.003906 459.207031 L 392.585938 449.945312 L 399.300781 376.4375 L 400.003906 376.253906 L 400.738281 376.4375 L 407.417969 449.933594 Z M 384.003906 333.605469 C 394.429688 336.8125 405.578125 336.8125 416.003906 333.605469 L 416.003906 340.695312 L 400.003906 356.695312 L 384.003906 340.695312 Z M 417.148438 380.550781 L 424.003906 382.261719 L 424.003906 429.207031 L 421.835938 431.917969 Z M 426.179688 366.328125 L 415.644531 363.6875 L 427.316406 352.007812 L 429.765625 352.007812 Z M 464.003906 264.007812 C 463.988281 269.699219 460.9375 274.949219 456.003906 277.785156 L 456.003906 250.230469 C 460.9375 253.066406 463.988281 258.316406 464.003906 264.007812 Z M 336.003906 264.007812 C 336.019531 258.316406 339.070312 253.066406 344.003906 250.230469 L 344.003906 277.785156 C 339.070312 274.949219 336.019531 269.699219 336.003906 264.007812 Z M 347.683594 211.113281 L 355.578125 207.167969 C 359.535156 205.195312 361.140625 200.386719 359.164062 196.429688 L 348.949219 176.007812 L 436.691406 176.007812 L 456.003906 195.320312 L 456.003906 204.695312 L 448.003906 212.695312 L 429.660156 194.351562 C 426.535156 191.226562 421.472656 191.226562 418.347656 194.351562 L 388.691406 224.007812 L 356.285156 224.007812 Z M 360.003906 280.007812 L 360.003906 240.007812 L 392.003906 240.007812 C 394.125 240.007812 396.160156 239.164062 397.660156 237.664062 L 424.003906 211.320312 L 440.003906 227.320312 L 440.003906 280.007812 C 440.003906 282.238281 439.800781 284.464844 439.386719 286.65625 C 437.503906 298.464844 430.34375 308.769531 419.933594 314.65625 C 407.5625 321.839844 392.28125 321.8125 379.933594 314.582031 C 376.90625 312.863281 374.132812 310.734375 371.691406 308.253906 C 365.738281 302.382812 361.839844 294.75 360.570312 286.488281 C 360.183594 284.351562 359.992188 282.179688 360.003906 280.007812 Z M 372.691406 352.007812 L 384.363281 363.679688 L 373.828125 366.320312 L 370.242188 352.007812 Z M 376.003906 429.199219 L 376.003906 382.253906 L 382.835938 380.542969 L 378.164062 431.902344 Z M 408.003906 496.007812 L 408.003906 474.824219 L 423.59375 455.328125 L 423.972656 455.328125 L 423.972656 454.933594 L 438.285156 437.039062 C 439.414062 435.605469 440.019531 433.832031 440.003906 432.007812 L 440.003906 376.976562 L 446.242188 352.007812 L 468.691406 352.007812 L 496.003906 379.320312 L 496.003906 456.007812 L 480.003906 456.007812 L 480.003906 384.007812 L 464.003906 384.007812 L 464.003906 496.007812 Z M 480.003906 494.535156 L 480.003906 472.007812 L 496.003906 472.007812 C 495.960938 482.140625 489.558594 491.15625 480.003906 494.535156 Z M 187.882812 54.863281 L 221.53125 75.054688 L 200.84375 116.429688 C 199.21875 119.675781 199.984375 123.609375 202.707031 126.011719 C 205.429688 128.410156 209.425781 128.679688 212.445312 126.664062 L 256.003906 97.605469 L 299.5625 126.648438 C 302.582031 128.664062 306.582031 128.398438 309.304688 125.996094 C 312.027344 123.59375 312.789062 119.660156 311.164062 116.414062 L 290.476562 75.054688 L 324.125 54.863281 C 327.207031 53.011719 328.671875 49.332031 327.710938 45.871094 C 326.75 42.40625 323.597656 40.007812 320.003906 40.007812 L 277.417969 40.007812 L 263.4375 5.039062 C 262.226562 1.996094 259.28125 0 256.003906 0 C 252.730469 0 249.785156 1.996094 248.570312 5.039062 L 234.585938 40.007812 L 192.003906 40.007812 C 188.410156 40.007812 185.257812 42.40625 184.296875 45.871094 C 183.335938 49.332031 184.804688 53.011719 187.882812 54.863281 Z M 240.003906 56.007812 C 243.277344 56.007812 246.222656 54.015625 247.4375 50.976562 L 256.003906 29.542969 L 264.570312 50.976562 C 265.785156 54.015625 268.730469 56.007812 272.003906 56.007812 L 291.125 56.007812 L 275.882812 65.152344 C 272.316406 67.300781 270.996094 71.820312 272.84375 75.550781 L 283.378906 96.605469 L 260.445312 81.320312 C 257.753906 79.527344 254.253906 79.527344 251.5625 81.320312 L 228.628906 96.605469 L 239.203125 75.582031 C 241.046875 71.851562 239.726562 67.332031 236.164062 65.183594 L 220.882812 56.007812 Z M 87.386719 97.503906 L 80.242188 126.070312 C 79.464844 129.105469 80.53125 132.316406 82.972656 134.285156 C 85.410156 136.25 88.777344 136.613281 91.578125 135.207031 L 120.003906 120.953125 L 148.425781 135.207031 C 151.21875 136.605469 154.570312 136.246094 157.007812 134.292969 C 159.445312 132.335938 160.523438 129.144531 159.765625 126.113281 L 152.621094 97.542969 L 166.660156 76.488281 C 168.320312 74.03125 168.484375 70.859375 167.089844 68.242188 C 165.695312 65.625 162.96875 63.996094 160.003906 64.007812 L 140.285156 64.007812 L 126.683594 43.566406 C 125.113281 41.46875 122.648438 40.230469 120.027344 40.230469 C 117.40625 40.230469 114.941406 41.46875 113.371094 43.566406 L 99.722656 64.007812 L 80.003906 64.007812 C 77.050781 64.007812 74.339844 65.632812 72.949219 68.234375 C 71.554688 70.835938 71.710938 73.992188 73.347656 76.449219 Z M 104.003906 80.007812 C 106.679688 80.007812 109.175781 78.671875 110.660156 76.449219 L 120.003906 62.40625 L 129.347656 76.421875 C 130.828125 78.65625 133.324219 80.003906 136.003906 80.007812 L 145.058594 80.007812 L 137.347656 91.566406 C 136.089844 93.449219 135.691406 95.773438 136.242188 97.96875 L 140.027344 113.09375 L 123.578125 104.871094 C 121.328125 103.746094 118.675781 103.746094 116.425781 104.871094 L 100.003906 113.070312 L 103.789062 97.945312 C 104.339844 95.75 103.941406 93.425781 102.683594 91.542969 L 94.949219 80.007812 Z M 359.386719 97.503906 L 352.242188 126.070312 C 351.464844 129.105469 352.53125 132.316406 354.972656 134.285156 C 357.410156 136.25 360.777344 136.613281 363.578125 135.207031 L 392.003906 120.953125 L 420.425781 135.207031 C 423.21875 136.605469 426.570312 136.246094 429.007812 134.292969 C 431.445312 132.335938 432.523438 129.144531 431.765625 126.113281 L 424.621094 97.542969 L 438.660156 76.488281 C 440.320312 74.03125 440.484375 70.859375 439.089844 68.242188 C 437.695312 65.625 434.96875 63.996094 432.003906 64.007812 L 412.285156 64.007812 L 398.683594 43.566406 C 397.113281 41.46875 394.648438 40.230469 392.027344 40.230469 C 389.40625 40.230469 386.941406 41.46875 385.371094 43.566406 L 371.722656 64.007812 L 352.003906 64.007812 C 349.050781 64.007812 346.339844 65.632812 344.949219 68.234375 C 343.554688 70.835938 343.710938 73.992188 345.347656 76.449219 Z M 376.003906 80.007812 C 378.679688 80.007812 381.175781 78.671875 382.660156 76.449219 L 392.003906 62.40625 L 401.347656 76.421875 C 402.828125 78.65625 405.324219 80.003906 408.003906 80.007812 L 417.058594 80.007812 L 409.347656 91.566406 C 408.089844 93.449219 407.691406 95.773438 408.242188 97.96875 L 412.027344 113.09375 L 395.578125 104.871094 C 393.328125 103.746094 390.675781 103.746094 388.425781 104.871094 L 372.003906 113.070312 L 375.789062 97.945312 C 376.339844 95.75 375.941406 93.425781 374.683594 91.542969 L 366.949219 80.007812 Z M 376.003906 80.007812 "/>
</g>
</svg>
