<?xml version="1.0" encoding="UTF-8"?>
<svg xmlns="http://www.w3.org/2000/svg" xmlns:xlink="http://www.w3.org/1999/xlink" width="477pt" height="511pt" viewBox="0 0 477 511" version="1.1">
<g id="surface3">
<path style=" stroke:none;fill-rule:nonzero;fill:rgb(81.960784%,83.137255%,86.27451%);fill-opacity:1;" d="M 76.800781 281.597656 L 76.800781 34.132812 C 76.800781 19.996094 88.261719 8.535156 102.398438 8.535156 L 385.449219 8.535156 C 389.984375 8.53125 394.335938 10.332031 397.539062 13.542969 L 464.324219 80.324219 C 467.53125 83.527344 469.335938 87.878906 469.332031 92.414062 L 469.332031 477.863281 C 469.332031 492.003906 457.871094 503.464844 443.730469 503.464844 L 102.398438 503.464844 C 88.261719 503.464844 76.800781 492.003906 76.800781 477.863281 Z M 76.800781 281.597656 "/>
<path style=" stroke:none;fill-rule:nonzero;fill:rgb(100%,81.176471%,21.960784%);fill-opacity:1;" d="M 17.066406 281.597656 L 290.132812 281.597656 C 294.84375 281.597656 298.664062 285.417969 298.664062 290.132812 L 298.664062 443.730469 C 298.664062 448.445312 294.84375 452.265625 290.132812 452.265625 L 17.066406 452.265625 C 12.355469 452.265625 8.535156 448.445312 8.535156 443.730469 L 8.535156 290.132812 C 8.535156 285.417969 12.355469 281.597656 17.066406 281.597656 Z M 17.066406 281.597656 "/>
<path style=" stroke:none;fill-rule:nonzero;fill:rgb(56.470588%,58.823529%,63.529412%);fill-opacity:1;" d="M 467.796875 85.332031 L 425.640625 85.332031 C 416.855469 85.351562 408.421875 81.871094 402.207031 75.65625 C 395.992188 69.445312 392.511719 61.011719 392.53125 52.222656 L 392.53125 10.070312 C 394.410156 10.921875 396.117188 12.117188 397.566406 13.566406 L 464.296875 80.296875 C 465.746094 81.75 466.941406 83.457031 467.796875 85.332031 Z M 467.796875 85.332031 "/>
<path style=" stroke:none;fill-rule:nonzero;fill:rgb(21.568627%,21.568627%,21.568627%);fill-opacity:1;" d="M 0 290.132812 L 0 443.730469 C 0 453.15625 7.640625 460.796875 17.066406 460.796875 L 68.265625 460.796875 L 68.265625 477.863281 C 68.265625 496.714844 83.546875 511.996094 102.398438 511.996094 L 443.730469 511.996094 C 462.582031 511.996094 477.863281 496.714844 477.863281 477.863281 L 477.863281 92.414062 C 477.855469 88.886719 477.117188 85.402344 475.6875 82.175781 C 475.609375 81.992188 475.515625 81.816406 475.40625 81.648438 C 474.171875 78.917969 472.460938 76.429688 470.355469 74.300781 L 403.574219 7.507812 C 401.441406 5.40625 398.953125 3.695312 396.226562 2.457031 C 396.058594 2.351562 395.882812 2.257812 395.699219 2.175781 C 392.46875 0.75 388.980469 0.0078125 385.449219 0 L 102.398438 0 C 83.546875 0 68.265625 15.28125 68.265625 34.132812 L 68.265625 238.933594 C 68.265625 243.644531 72.085938 247.464844 76.800781 247.464844 C 81.511719 247.464844 85.332031 243.644531 85.332031 238.933594 L 85.332031 34.132812 C 85.332031 24.707031 92.972656 17.066406 102.398438 17.066406 L 384 17.066406 L 384 52.222656 C 384.023438 75.210938 402.652344 93.84375 425.640625 93.867188 L 460.796875 93.867188 L 460.796875 477.863281 C 460.796875 487.289062 453.15625 494.929688 443.730469 494.929688 L 102.398438 494.929688 C 92.972656 494.929688 85.332031 487.289062 85.332031 477.863281 L 85.332031 460.796875 L 290.132812 460.796875 C 299.558594 460.796875 307.199219 453.15625 307.199219 443.730469 L 307.199219 290.132812 C 307.199219 280.707031 299.558594 273.066406 290.132812 273.066406 L 17.066406 273.066406 C 7.640625 273.066406 0 280.707031 0 290.132812 Z M 401.066406 52.222656 L 401.066406 29.132812 L 448.730469 76.800781 L 425.640625 76.800781 C 412.074219 76.785156 401.078125 65.789062 401.066406 52.222656 Z M 290.132812 443.730469 L 17.066406 443.730469 L 17.066406 290.132812 L 290.132812 290.132812 Z M 290.132812 443.730469 "/>
<path style=" stroke:none;fill-rule:nonzero;fill:rgb(21.568627%,21.568627%,21.568627%);fill-opacity:1;" d="M 128 76.800781 L 332.796875 76.800781 C 337.511719 76.800781 341.332031 72.980469 341.332031 68.265625 C 341.332031 63.554688 337.511719 59.734375 332.796875 59.734375 L 128 59.734375 C 123.285156 59.734375 119.464844 63.554688 119.464844 68.265625 C 119.464844 72.980469 123.285156 76.800781 128 76.800781 Z M 128 119.464844 L 332.796875 119.464844 C 337.511719 119.464844 341.332031 115.644531 341.332031 110.933594 C 341.332031 106.21875 337.511719 102.398438 332.796875 102.398438 L 128 102.398438 C 123.285156 102.398438 119.464844 106.21875 119.464844 110.933594 C 119.464844 115.644531 123.285156 119.464844 128 119.464844 Z M 128 162.132812 L 418.132812 162.132812 C 422.84375 162.132812 426.664062 158.3125 426.664062 153.597656 C 426.664062 148.886719 422.84375 145.066406 418.132812 145.066406 L 128 145.066406 C 123.285156 145.066406 119.464844 148.886719 119.464844 153.597656 C 119.464844 158.3125 123.285156 162.132812 128 162.132812 Z M 128 204.800781 L 418.132812 204.800781 C 422.84375 204.800781 426.664062 200.980469 426.664062 196.265625 C 426.664062 191.554688 422.84375 187.734375 418.132812 187.734375 L 128 187.734375 C 123.285156 187.734375 119.464844 191.554688 119.464844 196.265625 C 119.464844 200.980469 123.285156 204.800781 128 204.800781 Z M 128 247.464844 L 418.132812 247.464844 C 422.84375 247.464844 426.664062 243.644531 426.664062 238.933594 C 426.664062 234.21875 422.84375 230.398438 418.132812 230.398438 L 128 230.398438 C 123.285156 230.398438 119.464844 234.21875 119.464844 238.933594 C 119.464844 243.644531 123.285156 247.464844 128 247.464844 Z M 418.132812 273.066406 L 341.332031 273.066406 C 336.621094 273.066406 332.796875 276.886719 332.796875 281.597656 C 332.796875 286.3125 336.621094 290.132812 341.332031 290.132812 L 418.132812 290.132812 C 422.84375 290.132812 426.664062 286.3125 426.664062 281.597656 C 426.664062 276.886719 422.84375 273.066406 418.132812 273.066406 Z M 418.132812 315.730469 L 341.332031 315.730469 C 336.621094 315.730469 332.796875 319.550781 332.796875 324.265625 C 332.796875 328.976562 336.621094 332.796875 341.332031 332.796875 L 418.132812 332.796875 C 422.84375 332.796875 426.664062 328.976562 426.664062 324.265625 C 426.664062 319.550781 422.84375 315.730469 418.132812 315.730469 Z M 418.132812 358.398438 L 341.332031 358.398438 C 336.621094 358.398438 332.796875 362.21875 332.796875 366.933594 C 332.796875 371.644531 336.621094 375.464844 341.332031 375.464844 L 418.132812 375.464844 C 422.84375 375.464844 426.664062 371.644531 426.664062 366.933594 C 426.664062 362.21875 422.84375 358.398438 418.132812 358.398438 Z M 418.132812 401.066406 L 341.332031 401.066406 C 336.621094 401.066406 332.796875 404.886719 332.796875 409.597656 C 332.796875 414.3125 336.621094 418.132812 341.332031 418.132812 L 418.132812 418.132812 C 422.84375 418.132812 426.664062 414.3125 426.664062 409.597656 C 426.664062 404.886719 422.84375 401.066406 418.132812 401.066406 Z M 418.132812 443.730469 L 341.332031 443.730469 C 336.621094 443.730469 332.796875 447.550781 332.796875 452.265625 C 332.796875 456.976562 336.621094 460.796875 341.332031 460.796875 L 418.132812 460.796875 C 422.84375 460.796875 426.664062 456.976562 426.664062 452.265625 C 426.664062 447.550781 422.84375 443.730469 418.132812 443.730469 Z M 145.066406 418.132812 C 163.917969 418.132812 179.199219 402.851562 179.199219 384 L 179.199219 349.867188 C 179.199219 331.015625 163.917969 315.730469 145.066406 315.730469 C 126.214844 315.730469 110.933594 331.015625 110.933594 349.867188 L 110.933594 384 C 110.933594 402.851562 126.214844 418.132812 145.066406 418.132812 Z M 128 349.867188 C 128 340.441406 135.640625 332.796875 145.066406 332.796875 C 154.492188 332.796875 162.132812 340.441406 162.132812 349.867188 L 162.132812 384 C 162.132812 393.425781 154.492188 401.066406 145.066406 401.066406 C 135.640625 401.066406 128 393.425781 128 384 Z M 59.734375 418.132812 L 93.867188 418.132812 C 98.578125 418.132812 102.398438 414.3125 102.398438 409.597656 C 102.398438 404.886719 98.578125 401.066406 93.867188 401.066406 L 59.734375 401.066406 L 59.734375 324.265625 C 59.734375 319.550781 55.914062 315.730469 51.199219 315.730469 C 46.488281 315.730469 42.667969 319.550781 42.667969 324.265625 L 42.667969 401.066406 C 42.667969 410.492188 50.308594 418.132812 59.734375 418.132812 Z M 230.398438 418.132812 C 249.25 418.132812 264.53125 402.851562 264.53125 384 L 264.53125 375.464844 C 264.53125 370.753906 260.710938 366.933594 256 366.933594 L 238.933594 366.933594 C 234.21875 366.933594 230.398438 370.753906 230.398438 375.464844 C 230.398438 380.179688 234.21875 384 238.933594 384 L 247.464844 384 C 247.464844 393.425781 239.824219 401.066406 230.398438 401.066406 C 220.972656 401.066406 213.332031 393.425781 213.332031 384 L 213.332031 349.867188 C 213.316406 341.539062 219.308594 334.417969 227.511719 333.007812 C 235.71875 331.601562 243.742188 336.316406 246.5 344.171875 C 248.203125 348.417969 252.953125 350.566406 257.265625 349.042969 C 261.578125 347.515625 263.921875 342.863281 262.578125 338.492188 C 257.035156 322.820312 241.011719 313.421875 224.628906 316.230469 C 208.246094 319.042969 196.269531 333.242188 196.265625 349.867188 L 196.265625 384 C 196.265625 402.851562 211.546875 418.132812 230.398438 418.132812 Z M 230.398438 418.132812 "/>
</g>
</svg>
