<?xml version="1.0" encoding="UTF-8"?>
<svg xmlns="http://www.w3.org/2000/svg" xmlns:xlink="http://www.w3.org/1999/xlink" width="512px" height="512px" viewBox="0 0 512 512" version="1.1">
<g id="surface3">
<path style=" stroke:none;fill-rule:evenodd;fill:rgb(100%,64.313725%,44.313725%);fill-opacity:1;" d="M 336.816406 93.980469 C 384.238281 93.980469 454.03125 204.320312 454.03125 340.445312 C 454.03125 476.570312 384.238281 586.949219 336.816406 586.949219 C 289.390625 586.949219 219.601562 476.570312 219.601562 340.445312 C 219.605469 204.320312 289.390625 93.980469 336.816406 93.980469 Z M 336.816406 93.980469 "/>
<path style=" stroke:none;fill-rule:evenodd;fill:rgb(94.901961%,58.431373%,41.568627%);fill-opacity:1;" d="M 376.304688 114.488281 C 415.535156 152.488281 454.03125 239.378906 454.03125 340.445312 C 454.03125 476.570312 384.238281 586.949219 336.816406 586.949219 C 317.992188 586.949219 295.65625 569.53125 275.558594 540.09375 C 287.265625 549.519531 298.859375 554.683594 309.375 554.683594 C 358.074219 554.683594 429.765625 444.304688 429.765625 308.179688 C 429.765625 229.617188 405.871094 159.613281 376.304688 114.488281 Z M 376.304688 114.488281 "/>
<path style=" stroke:none;fill-rule:evenodd;fill:rgb(100%,39.215686%,44.313725%);fill-opacity:1;" d="M 405.585938 152.5625 L 268.046875 152.5625 C 260.082031 165.832031 252.628906 181.023438 246.078125 197.761719 L 427.554688 197.761719 C 421.007812 181.023438 413.550781 165.832031 405.585938 152.5625 Z M 405.585938 528.859375 L 268.046875 528.859375 C 260.082031 515.589844 252.628906 500.398438 246.078125 483.660156 L 427.554688 483.660156 C 421.007812 500.398438 413.550781 515.589844 405.585938 528.859375 Z M 405.585938 528.859375 "/>
<path style=" stroke:none;fill-rule:evenodd;fill:rgb(100%,25.098039%,33.72549%);fill-opacity:1;" d="M 405.585938 528.859375 C 413.550781 515.589844 421.007812 500.398438 427.554688 483.660156 L 387.191406 483.660156 C 377.269531 501.867188 366.355469 517.171875 355.269531 528.859375 Z M 405.585938 528.859375 "/>
<path style=" stroke:none;fill-rule:evenodd;fill:rgb(100%,94.117647%,67.843137%);fill-opacity:1;" d="M 401.363281 361.03125 L 496.75 361.03125 C 501.003906 361.03125 504.515625 365.667969 504.515625 371.359375 L 504.515625 576.625 C 504.515625 582.3125 501.003906 586.953125 496.75 586.953125 L 401.363281 586.953125 C 397.082031 586.953125 393.59375 582.316406 393.59375 576.625 L 393.59375 371.359375 C 393.597656 365.667969 397.082031 361.03125 401.363281 361.03125 Z M 401.363281 361.03125 "/>
<path style=" stroke:none;fill-rule:evenodd;fill:rgb(94.901961%,58.431373%,41.568627%);fill-opacity:1;" d="M 143.890625 586.949219 C 219.007812 586.949219 280.265625 505.484375 280.265625 405.585938 C 280.265625 305.6875 219.007812 224.1875 143.890625 224.1875 C 68.769531 224.1875 7.511719 305.6875 7.511719 405.585938 C 7.511719 505.484375 68.769531 586.949219 143.890625 586.949219 Z M 143.890625 586.949219 "/>
<path style=" stroke:none;fill-rule:evenodd;fill:rgb(89.411765%,51.372549%,35.686275%);fill-opacity:1;" d="M 227.425781 262.183594 C 259.570312 295.398438 280.265625 347.269531 280.265625 405.585938 C 280.265625 505.75 219.207031 586.949219 143.890625 586.949219 C 100.035156 586.949219 61.03125 559.433594 36.085938 516.683594 C 59.160156 540.46875 88.128906 554.679688 119.621094 554.679688 C 194.941406 554.683594 256 473.480469 256 373.28125 C 256 331.4375 245.34375 292.910156 227.425781 262.183594 Z M 227.425781 262.183594 "/>
<path style=" stroke:none;fill-rule:evenodd;fill:rgb(70.196078%,85.490196%,99.607843%);fill-opacity:1;" d="M 304.785156 568.480469 C 304.785156 578.621094 298.519531 586.953125 290.894531 586.953125 L 211.410156 586.953125 C 203.757812 586.953125 197.519531 578.621094 197.519531 568.480469 L 197.519531 462.777344 C 197.519531 452.597656 203.757812 444.304688 211.410156 444.304688 L 290.894531 444.304688 C 298.519531 444.304688 304.785156 452.597656 304.785156 462.777344 Z M 304.785156 568.480469 "/>
<path style=" stroke:none;fill-rule:evenodd;fill:rgb(54.117647%,78.823529%,99.607843%);fill-opacity:1;" d="M 304.785156 568.480469 C 304.785156 578.621094 298.519531 586.953125 290.894531 586.953125 L 211.410156 586.953125 C 203.757812 586.953125 197.519531 578.621094 197.519531 568.480469 L 197.519531 554.683594 L 265.949219 554.683594 C 273.972656 554.683594 280.519531 545.972656 280.519531 535.304688 L 280.519531 444.304688 L 290.894531 444.304688 C 298.519531 444.304688 304.785156 452.597656 304.785156 462.777344 Z M 304.785156 568.480469 "/>
<path style=" stroke:none;fill-rule:evenodd;fill:rgb(100%,88.235294%,46.666667%);fill-opacity:1;" d="M 480.253906 361.03125 L 496.75 361.03125 C 501.003906 361.03125 504.515625 365.667969 504.515625 371.359375 L 504.515625 576.625 C 504.515625 582.3125 501.003906 586.953125 496.75 586.953125 L 401.363281 586.953125 C 397.082031 586.953125 393.59375 582.316406 393.59375 576.625 L 393.59375 554.683594 L 465.679688 554.683594 C 473.675781 554.683594 480.25 545.976562 480.25 535.308594 L 480.25 361.03125 Z M 480.253906 361.03125 "/>
<path style=" stroke:none;fill-rule:evenodd;fill:rgb(100%,25.098039%,33.72549%);fill-opacity:1;" d="M 397.054688 152.5625 C 403.570312 166.984375 409.175781 182.101562 413.808594 197.761719 L 427.554688 197.761719 C 421.007812 181.023438 413.550781 165.832031 405.585938 152.5625 Z M 397.054688 152.5625 "/>
<path style=" stroke:none;fill-rule:nonzero;fill:rgb(0%,0%,0%);fill-opacity:1;" d="M 194.007812 584.953125 C 187.257812 588.304688 180.230469 590.984375 172.945312 592.980469 C 163.382812 595.582031 153.648438 596.894531 143.890625 596.902344 C 105.59375 596.902344 69.222656 576.882812 42.152344 540.882812 C 16.101562 506.238281 0 458.402344 0 405.585938 C 0 372.867188 6.234375 340.898438 18.226562 312.359375 C 30.261719 283.753906 47.589844 259.710938 68.570312 242.507812 C 72.085938 239.644531 76.707031 241.113281 78.890625 245.785156 C 81.042969 250.460938 79.9375 256.605469 76.421875 259.507812 C 69.324219 265.300781 62.667969 272.003906 56.554688 279.527344 C 68.398438 289.15625 81.089844 296.816406 94.339844 302.335938 C 107.976562 307.976562 122.105469 311.257812 136.378906 312.097656 L 136.378906 234.441406 C 132.351562 234.742188 128.382812 235.304688 124.472656 236.097656 C 118.070312 237.378906 111.75 239.296875 105.5625 241.828125 C 101.625 243.449219 97.429688 240.507812 96.210938 235.269531 C 95.019531 229.992188 97.230469 224.449219 101.171875 222.828125 C 108.058594 220 115.089844 217.816406 122.234375 216.382812 C 129.402344 214.941406 136.640625 214.226562 143.890625 214.234375 C 172.121094 214.234375 199.507812 225.089844 223.089844 245.785156 C 232.246094 206.769531 247.269531 168.769531 267.539062 137.785156 C 289.648438 104.046875 315.074219 83.992188 336.816406 83.992188 C 356.378906 83.992188 378.882812 100.199219 399.265625 127.984375 C 420.382812 156.78125 436.371094 193.351562 446.71875 230.785156 C 448.132812 235.949219 446.148438 241.679688 442.265625 243.5625 C 438.382812 245.449219 434.074219 242.808594 432.65625 237.644531 C 429.839844 227.445312 426.613281 217.453125 422.992188 207.714844 L 250.644531 207.714844 C 244.582031 223.988281 239.640625 240.957031 235.875 258.414062 C 239.265625 262.175781 242.53125 266.136719 245.652344 270.289062 C 278.109375 313.457031 292.964844 374.035156 286.132812 434.3125 L 290.894531 434.3125 C 296.789062 434.3125 302.121094 437.519531 306.003906 442.683594 C 310.023438 448.003906 312.277344 455.234375 312.269531 462.773438 L 312.269531 473.707031 L 386.085938 473.707031 L 386.085938 361.027344 C 386.085938 355.523438 389.457031 351.078125 393.597656 351.078125 L 446.40625 351.078125 C 446.800781 337.46875 446.40625 323.484375 445.355469 309.988281 C 444.539062 299.796875 443.335938 289.671875 441.757812 279.640625 C 440.90625 274.25 443.484375 268.972656 447.539062 267.878906 C 451.59375 266.746094 455.5625 270.214844 456.382812 275.570312 C 458.085938 286.28125 459.375 297.101562 460.238281 307.988281 C 461.371094 322.425781 461.710938 336.5625 461.371094 351.078125 L 504.515625 351.078125 C 506.503906 351.074219 508.40625 352.121094 509.808594 353.988281 C 511.214844 355.855469 512 358.390625 512 361.027344 L 512 586.949219 C 512 589.589844 511.214844 592.121094 509.808594 593.988281 C 508.40625 595.855469 506.503906 596.902344 504.515625 596.902344 L 393.597656 596.902344 C 389.457031 596.902344 386.085938 592.453125 386.085938 586.949219 L 386.085938 568.96875 C 380.242188 575.300781 374.320312 580.617188 368.421875 584.875 C 357.566406 592.714844 346.824219 596.902344 336.816406 596.902344 C 326.585938 596.902344 316.492188 592.566406 307.449219 586.460938 C 303.367188 593.054688 297.328125 596.902344 290.894531 596.902344 L 211.410156 596.902344 C 205.738281 596.921875 200.296875 593.921875 196.300781 588.570312 C 195.460938 587.453125 194.691406 586.242188 194.007812 584.953125 Z M 323.578125 273.230469 C 319.441406 273.230469 316.097656 268.746094 316.097656 263.242188 C 316.097656 257.738281 319.441406 253.289062 323.578125 253.289062 L 329.304688 253.289062 L 329.304688 240.960938 C 329.304688 235.457031 332.679688 231.011719 336.816406 231.011719 C 340.957031 231.011719 344.328125 235.457031 344.328125 240.960938 L 344.328125 253.289062 L 350.054688 253.289062 C 354.195312 253.289062 357.539062 257.738281 357.539062 263.242188 C 357.539062 268.746094 354.195312 273.230469 350.054688 273.230469 L 344.328125 273.230469 L 344.328125 292.007812 L 350.054688 292.007812 C 354.195312 292.007812 357.539062 296.492188 357.539062 301.996094 C 357.539062 307.5 354.195312 311.945312 350.054688 311.945312 L 344.328125 311.945312 L 344.328125 330.71875 L 350.054688 330.71875 C 354.195312 330.71875 357.539062 335.207031 357.539062 340.710938 C 357.539062 346.214844 354.195312 350.699219 350.054688 350.699219 L 344.328125 350.699219 L 344.328125 369.472656 L 350.054688 369.472656 C 352.042969 369.472656 353.945312 370.519531 355.347656 372.386719 C 356.753906 374.253906 357.539062 376.785156 357.539062 379.425781 C 357.539062 384.929688 354.195312 389.417969 350.054688 389.417969 L 344.328125 389.417969 L 344.328125 408.191406 L 350.054688 408.191406 C 354.195312 408.191406 357.539062 412.675781 357.539062 418.179688 C 357.539062 423.683594 354.195312 428.132812 350.054688 428.132812 L 344.328125 428.132812 L 344.328125 440.460938 C 344.328125 445.964844 340.957031 450.410156 336.816406 450.410156 C 332.679688 450.410156 329.304688 445.960938 329.304688 440.460938 L 329.304688 428.132812 L 323.578125 428.132812 C 321.59375 428.132812 319.6875 427.085938 318.285156 425.21875 C 316.882812 423.351562 316.09375 420.820312 316.097656 418.179688 C 316.097656 412.675781 319.441406 408.191406 323.578125 408.191406 L 329.304688 408.191406 L 329.304688 389.417969 L 323.578125 389.417969 C 319.441406 389.417969 316.097656 384.929688 316.097656 379.425781 C 316.09375 376.785156 316.882812 374.253906 318.285156 372.386719 C 319.6875 370.519531 321.59375 369.472656 323.578125 369.472656 L 329.304688 369.472656 L 329.304688 350.699219 L 323.578125 350.699219 C 319.441406 350.699219 316.097656 346.214844 316.097656 340.710938 C 316.097656 335.207031 319.441406 330.71875 323.578125 330.71875 L 329.304688 330.71875 L 329.304688 311.945312 L 323.578125 311.945312 C 319.441406 311.945312 316.097656 307.5 316.097656 301.996094 C 316.097656 296.492188 319.441406 292.007812 323.578125 292.007812 L 329.304688 292.007812 L 329.304688 273.230469 Z M 312.238281 518.867188 L 386.085938 518.867188 L 386.085938 493.648438 L 312.238281 493.648438 Z M 312.238281 538.8125 L 312.238281 567.3125 C 319.667969 572.664062 328.285156 576.960938 336.816406 576.960938 C 344.355469 576.960938 352.660156 573.644531 361.277344 567.421875 C 369.472656 561.503906 377.890625 553.023438 386.085938 542.316406 L 386.085938 538.8125 Z M 297.300781 462.773438 L 297.273438 462.773438 C 297.273438 460.4375 296.5625 458.328125 295.402344 456.78125 C 294.238281 455.234375 292.652344 454.253906 290.894531 454.253906 L 211.410156 454.253906 C 209.652344 454.253906 208.066406 455.234375 206.902344 456.78125 C 205.738281 458.328125 205.003906 460.4375 205.003906 462.773438 L 205.003906 568.476562 C 205.003906 570.816406 205.738281 572.925781 206.902344 574.472656 C 208.09375 576.066406 209.71875 576.964844 211.410156 576.960938 L 290.894531 576.960938 C 292.585938 576.964844 294.207031 576.066406 295.402344 574.472656 C 296.589844 572.890625 297.300781 570.742188 297.300781 568.476562 Z M 414.800781 187.769531 C 410.746094 178.761719 406.4375 170.316406 401.957031 162.550781 L 271.703125 162.550781 C 267.050781 170.621094 262.753906 179.039062 258.835938 187.769531 Z M 389.089844 142.609375 C 376.332031 125.003906 356.179688 103.933594 336.816406 103.933594 C 321.140625 103.933594 302.261719 118.179688 284.574219 142.609375 Z M 243.640625 512.347656 C 243.640625 506.84375 247.015625 502.394531 251.152344 502.394531 C 255.292969 502.394531 258.664062 506.84375 258.664062 512.347656 L 258.664062 518.867188 C 258.667969 521.519531 257.875 524.0625 256.46875 525.933594 C 255.058594 527.808594 253.148438 528.859375 251.152344 528.859375 C 249.160156 528.859375 247.25 527.808594 245.839844 525.933594 C 244.429688 524.0625 243.640625 521.519531 243.640625 518.867188 Z M 266.175781 540.128906 C 266.175781 534.625 269.550781 530.179688 273.6875 530.179688 C 277.828125 530.179688 281.199219 534.628906 281.199219 540.128906 L 281.199219 546.691406 C 281.199219 552.195312 277.828125 556.640625 273.6875 556.640625 C 269.550781 556.640625 266.175781 552.191406 266.175781 546.691406 Z M 221.105469 484.5625 C 221.105469 479.058594 224.476562 474.574219 228.617188 474.574219 C 232.757812 474.574219 236.101562 479.058594 236.101562 484.5625 L 236.101562 491.085938 C 236.101562 496.589844 232.753906 501.074219 228.617188 501.074219 C 224.480469 501.074219 221.105469 496.589844 221.105469 491.085938 Z M 266.175781 484.5625 C 266.175781 479.058594 269.550781 474.574219 273.6875 474.574219 C 277.828125 474.574219 281.199219 479.058594 281.199219 484.5625 L 281.199219 491.085938 C 281.199219 496.589844 277.828125 501.074219 273.6875 501.074219 C 269.550781 501.074219 266.175781 496.589844 266.175781 491.085938 Z M 221.105469 540.128906 C 221.105469 534.625 224.476562 530.179688 228.617188 530.179688 C 232.757812 530.179688 236.101562 534.628906 236.101562 540.128906 L 236.101562 546.691406 C 236.101562 552.195312 232.753906 556.640625 228.617188 556.640625 C 224.480469 556.640625 221.105469 552.191406 221.105469 546.691406 Z M 270.96875 434.3125 C 271.765625 428.101562 272.296875 421.832031 272.554688 415.539062 L 151.398438 415.539062 L 151.398438 479.058594 C 158.375 479.476562 165.316406 480.378906 172.207031 481.851562 C 178.242188 483.09375 184.195312 484.753906 190.007812 486.789062 L 190.007812 462.777344 C 190.003906 455.230469 192.269531 447.996094 196.300781 442.683594 C 200.296875 437.324219 205.734375 434.308594 211.410156 434.316406 L 270.96875 434.316406 Z M 190.007812 507.40625 C 183.410156 504.882812 176.695312 502.90625 169.910156 501.488281 C 163.78125 500.1875 157.601562 499.367188 151.398438 499.039062 L 151.398438 576.699219 C 157.75 576.207031 163.957031 575.152344 169.96875 573.492188 C 176.796875 571.609375 183.5 568.988281 190.007812 565.652344 Z M 45.921875 294.152344 C 40.378906 302.785156 35.480469 312.117188 31.296875 322.011719 C 22.054688 343.988281 16.355469 368.945312 15.222656 395.597656 L 136.378906 395.597656 L 136.378906 332.078125 C 120.582031 331.226562 104.941406 327.613281 89.859375 321.332031 C 74.296875 314.886719 59.558594 305.6875 45.921875 294.152344 Z M 15.222656 415.539062 C 16.894531 454.179688 28.175781 489.351562 45.949219 516.984375 C 59.558594 505.449219 74.296875 496.25 89.859375 489.804688 C 104.941406 483.523438 120.582031 479.910156 136.378906 479.058594 L 136.378906 415.539062 Z M 56.554688 531.613281 C 77.8125 557.660156 105.648438 574.320312 136.378906 576.695312 L 136.378906 499.039062 C 122.105469 499.878906 107.976562 503.160156 94.339844 508.800781 C 81.089844 514.324219 68.398438 521.984375 56.554688 531.613281 Z M 151.398438 234.441406 L 151.398438 312.097656 C 165.679688 311.257812 179.816406 307.976562 193.464844 302.335938 C 206.703125 296.808594 219.386719 289.148438 231.226562 279.527344 C 209.9375 253.441406 182.070312 236.816406 151.398438 234.441406 Z M 241.855469 294.152344 C 228.21875 305.6875 213.480469 314.886719 197.917969 321.332031 C 182.832031 327.617188 167.191406 331.230469 151.398438 332.078125 L 151.398438 395.597656 L 272.554688 395.597656 C 270.882812 356.921875 259.601562 321.75 241.855469 294.152344 Z M 497.003906 396.238281 L 497.003906 371.019531 L 401.078125 371.019531 L 401.078125 396.238281 L 432.0625 396.238281 C 436.199219 396.238281 439.574219 400.726562 439.574219 406.230469 C 439.574219 411.734375 436.199219 416.179688 432.0625 416.179688 L 401.078125 416.179688 L 401.078125 441.4375 L 497.003906 441.4375 L 497.003906 416.179688 L 466.050781 416.179688 C 461.882812 416.179688 458.535156 411.730469 458.535156 406.230469 C 458.535156 400.726562 461.882812 396.238281 466.050781 396.238281 Z M 432.0625 486.597656 C 436.199219 486.597656 439.574219 491.085938 439.574219 496.589844 C 439.574219 502.09375 436.199219 506.539062 432.0625 506.539062 L 401.078125 506.539062 L 401.078125 531.800781 L 497.003906 531.800781 L 497.003906 506.539062 L 466.050781 506.539062 C 461.882812 506.539062 458.535156 502.09375 458.535156 496.589844 C 458.535156 491.085938 461.882812 486.597656 466.050781 486.597656 L 497.003906 486.597656 L 497.003906 461.378906 L 401.078125 461.378906 L 401.078125 486.597656 Z M 497.003906 551.742188 L 401.078125 551.742188 L 401.078125 576.960938 L 497.003906 576.960938 Z M 497.003906 551.742188 "/>
</g>
</svg>
