<?xml version="1.0" encoding="UTF-8"?>
<svg xmlns="http://www.w3.org/2000/svg" xmlns:xlink="http://www.w3.org/1999/xlink" width="511pt" height="512pt" viewBox="0 0 511 512" version="1.1">
<g id="surface3">
<path style=" stroke:none;fill-rule:nonzero;fill:rgb(34.117647%,40%,79.607843%);fill-opacity:1;" d="M 171.191406 342.953125 L 171.191406 388.597656 C 171.191406 424.996094 200.695312 454.5 237.09375 454.5 L 274.910156 454.5 C 311.304688 454.5 340.8125 424.996094 340.8125 388.597656 L 340.8125 342.953125 Z M 171.191406 342.953125 "/>
<path style=" stroke:none;fill-rule:nonzero;fill:rgb(81.568627%,88.627451%,90.588235%);fill-opacity:1;" d="M 340.839844 251.09375 L 171.160156 251.09375 C 163.65625 251.09375 157.574219 256.867188 157.574219 263.988281 C 157.574219 271.109375 163.65625 276.882812 171.160156 276.882812 L 340.839844 276.882812 C 348.34375 276.882812 354.425781 271.109375 354.425781 263.988281 C 354.425781 256.867188 348.34375 251.09375 340.839844 251.09375 Z M 340.839844 251.09375 "/>
<path style=" stroke:none;fill-rule:nonzero;fill:rgb(38.039216%,47.058824%,50.588235%);fill-opacity:1;" d="M 171.191406 251.09375 L 171.191406 163.59375 C 171.191406 127.195312 200.695312 97.691406 237.09375 97.691406 L 274.910156 97.691406 C 311.304688 97.691406 340.8125 127.195312 340.8125 163.59375 L 340.8125 251.09375 Z M 171.191406 251.09375 "/>
<path style=" stroke:none;fill-rule:nonzero;fill:rgb(27.843137%,34.901961%,34.901961%);fill-opacity:1;" d="M 282.625 98.136719 C 293.894531 109.960938 300.808594 125.96875 300.808594 143.589844 L 300.808594 195.800781 C 300.808594 215.292969 285.007812 231.09375 265.515625 231.09375 L 171.191406 231.09375 L 171.191406 251.09375 L 340.808594 251.09375 L 340.808594 163.589844 C 340.808594 129.804688 315.386719 101.960938 282.625 98.136719 Z M 282.625 98.136719 "/>
<path style=" stroke:none;fill-rule:nonzero;fill:rgb(81.568627%,88.627451%,90.588235%);fill-opacity:1;" d="M 103.578125 340.203125 L 117.402344 340.203125 L 117.402344 304.632812 L 103.578125 304.632812 C 97.367188 304.632812 92.335938 309.664062 92.335938 315.875 L 92.335938 328.964844 C 92.335938 335.171875 97.367188 340.203125 103.578125 340.203125 Z M 103.578125 340.203125 "/>
<path style=" stroke:none;fill-rule:nonzero;fill:rgb(86.666667%,34.117647%,56.470588%);fill-opacity:1;" d="M 272.609375 383.296875 C 272.609375 392.46875 265.171875 399.90625 256 399.90625 C 246.828125 399.90625 239.390625 392.46875 239.390625 383.296875 C 239.390625 374.125 246.828125 366.691406 256 366.691406 C 265.171875 366.691406 272.609375 374.125 272.609375 383.296875 Z M 272.609375 383.296875 "/>
<path style=" stroke:none;fill-rule:nonzero;fill:rgb(81.568627%,88.627451%,90.588235%);fill-opacity:1;" d="M 342.847656 342.953125 L 169.152344 342.953125 C 168.359375 342.953125 167.714844 342.308594 167.714844 341.515625 L 167.714844 303.320312 C 167.714844 302.527344 168.359375 301.882812 169.152344 301.882812 L 342.847656 301.882812 C 343.640625 301.882812 344.285156 302.527344 344.285156 303.320312 L 344.285156 341.515625 C 344.285156 342.308594 343.640625 342.953125 342.847656 342.953125 Z M 342.847656 342.953125 "/>
<path style=" stroke:none;fill-rule:nonzero;fill:rgb(70.588235%,81.568627%,83.529412%);fill-opacity:1;" d="M 142.402344 309.761719 L 167.714844 309.761719 L 167.714844 335.074219 L 142.402344 335.074219 Z M 142.402344 309.761719 "/>
<path style=" stroke:none;fill-rule:nonzero;fill:rgb(81.568627%,88.627451%,90.588235%);fill-opacity:1;" d="M 408.421875 340.203125 L 394.597656 340.203125 L 394.597656 304.632812 L 408.421875 304.632812 C 414.632812 304.632812 419.664062 309.664062 419.664062 315.875 L 419.664062 328.964844 C 419.664062 335.171875 414.632812 340.203125 408.421875 340.203125 Z M 408.421875 340.203125 "/>
<path style=" stroke:none;fill-rule:nonzero;fill:rgb(94.509804%,95.686275%,96.470588%);fill-opacity:1;" d="M 142.402344 296.976562 L 142.402344 395.058594 C 142.402344 441.691406 180.210938 479.5 226.84375 479.5 L 285.15625 479.5 C 331.789062 479.5 369.597656 441.691406 369.597656 395.058594 L 369.597656 296.96875 C 369.597656 296.464844 370.007812 296.058594 370.515625 296.058594 L 393.679688 296.058594 C 394.1875 296.058594 394.597656 296.46875 394.597656 296.976562 L 394.597656 395.058594 C 394.597656 455.5 345.597656 504.5 285.15625 504.5 L 226.84375 504.5 C 166.402344 504.5 117.402344 455.5 117.402344 395.058594 L 117.402344 296.976562 C 117.402344 296.46875 117.808594 296.058594 118.3125 296.058594 L 141.492188 296.058594 C 141.996094 296.058594 142.402344 296.46875 142.402344 296.976562 Z M 142.402344 296.976562 "/>
<path style=" stroke:none;fill-rule:nonzero;fill:rgb(70.588235%,81.568627%,83.529412%);fill-opacity:1;" d="M 369.597656 335.074219 L 344.285156 335.074219 L 344.285156 309.761719 L 369.597656 309.761719 Z M 369.597656 335.074219 "/>
<path style=" stroke:none;fill-rule:nonzero;fill:rgb(34.117647%,40%,79.607843%);fill-opacity:1;" d="M 171.191406 276.882812 L 340.8125 276.882812 L 340.8125 301.882812 L 171.191406 301.882812 Z M 171.191406 276.882812 "/>
<path style=" stroke:none;fill-rule:nonzero;fill:rgb(23.921569%,30.980392%,76.470588%);fill-opacity:1;" d="M 300.808594 342.953125 L 300.808594 344.9375 C 300.808594 394.402344 260.710938 434.5 211.25 434.5 L 197.089844 434.5 C 194.480469 434.5 191.90625 434.347656 189.375 434.054688 C 201.378906 446.648438 218.316406 454.5 237.09375 454.5 L 274.910156 454.5 C 311.304688 454.5 340.8125 424.996094 340.8125 388.597656 L 340.8125 342.953125 Z M 300.808594 342.953125 "/>
<path style=" stroke:none;fill-rule:nonzero;fill:rgb(70.588235%,81.568627%,83.529412%);fill-opacity:1;" d="M 342.847656 301.882812 L 304.285156 301.882812 L 304.285156 305.214844 C 304.285156 315.011719 296.34375 322.953125 286.550781 322.953125 L 167.714844 322.953125 L 167.714844 341.515625 C 167.714844 342.308594 168.359375 342.953125 169.152344 342.953125 L 342.847656 342.953125 C 343.640625 342.953125 344.285156 342.308594 344.285156 341.515625 L 344.285156 303.320312 C 344.285156 302.527344 343.640625 301.882812 342.847656 301.882812 Z M 342.847656 301.882812 "/>
<path style=" stroke:none;fill-rule:nonzero;fill:rgb(23.921569%,30.980392%,76.470588%);fill-opacity:1;" d="M 300.808594 276.882812 L 340.808594 276.882812 L 340.808594 301.882812 L 300.808594 301.882812 Z M 300.808594 276.882812 "/>
<path style=" stroke:none;fill-rule:nonzero;fill:rgb(52.54902%,94.509804%,65.490196%);fill-opacity:1;" d="M 497.640625 51.5 L 284.367188 51.5 C 280.578125 51.5 277.507812 54.570312 277.507812 58.359375 L 277.507812 97.738281 C 312.699219 99.105469 340.808594 128.066406 340.808594 163.589844 L 340.808594 210.734375 L 418.015625 210.734375 C 418.960938 210.734375 419.863281 211.109375 420.53125 211.777344 L 464.410156 255.65625 C 466.65625 257.898438 470.492188 256.308594 470.492188 253.136719 L 470.492188 214.292969 C 470.492188 212.328125 472.085938 210.734375 474.050781 210.734375 L 497.640625 210.734375 C 501.429688 210.734375 504.5 207.660156 504.5 203.871094 L 504.5 58.359375 C 504.5 54.570312 501.429688 51.5 497.640625 51.5 Z M 497.640625 51.5 "/>
<path style=" stroke:none;fill-rule:nonzero;fill:rgb(47.843137%,81.568627%,87.45098%);fill-opacity:1;" d="M 171.191406 163.59375 C 171.191406 128.066406 199.300781 99.105469 234.492188 97.742188 L 234.492188 14.359375 C 234.492188 10.570312 231.421875 7.5 227.632812 7.5 L 14.359375 7.5 C 10.570312 7.5 7.5 10.570312 7.5 14.359375 L 7.5 159.875 C 7.5 163.664062 10.570312 166.734375 14.359375 166.734375 L 37.949219 166.734375 C 39.914062 166.734375 41.507812 168.328125 41.507812 170.296875 L 41.507812 209.140625 C 41.507812 212.3125 45.34375 213.898438 47.589844 211.65625 L 91.46875 167.777344 C 92.136719 167.109375 93.039062 166.734375 93.984375 166.734375 L 171.191406 166.734375 Z M 171.191406 163.59375 "/>
<path style=" stroke:none;fill-rule:nonzero;fill:rgb(50.196078%,88.627451%,61.568627%);fill-opacity:1;" d="M 497.640625 51.5 L 464.5 51.5 L 464.5 151.269531 C 464.5 173.066406 446.832031 190.734375 425.035156 190.734375 L 340.808594 190.734375 L 340.808594 210.734375 L 418.015625 210.734375 C 418.960938 210.734375 419.863281 211.109375 420.53125 211.777344 L 464.410156 255.65625 C 466.65625 257.898438 470.492188 256.308594 470.492188 253.136719 L 470.492188 214.296875 C 470.492188 212.328125 472.085938 210.734375 474.050781 210.734375 L 497.640625 210.734375 C 501.429688 210.734375 504.5 207.664062 504.5 203.875 L 504.5 58.359375 C 504.5 54.570312 501.429688 51.5 497.640625 51.5 Z M 497.640625 51.5 "/>
<path style=" stroke:none;fill-rule:nonzero;fill:rgb(43.921569%,77.647059%,85.490196%);fill-opacity:1;" d="M 227.632812 7.5 L 194.492188 7.5 L 194.492188 57.804688 C 194.492188 106.917969 154.679688 146.734375 105.5625 146.734375 L 7.5 146.734375 L 7.5 159.875 C 7.5 163.664062 10.574219 166.734375 14.359375 166.734375 L 37.949219 166.734375 C 39.914062 166.734375 41.511719 168.328125 41.511719 170.296875 L 41.511719 209.136719 C 41.511719 212.3125 45.347656 213.898438 47.589844 211.65625 L 91.46875 167.777344 C 92.136719 167.109375 93.042969 166.734375 93.984375 166.734375 L 171.191406 166.734375 L 171.191406 163.59375 C 171.191406 128.066406 199.300781 99.105469 234.496094 97.742188 L 234.496094 14.359375 C 234.492188 10.570312 231.421875 7.5 227.632812 7.5 Z M 227.632812 7.5 "/>
<path style=" stroke:none;fill-rule:nonzero;fill:rgb(0%,0%,0%);fill-opacity:1;" d="M 199.492188 49.871094 L 42.5 49.871094 C 38.359375 49.871094 35 53.230469 35 57.371094 C 35 61.515625 38.359375 64.871094 42.5 64.871094 L 199.492188 64.871094 C 203.636719 64.871094 206.992188 61.515625 206.992188 57.371094 C 206.992188 53.230469 203.636719 49.871094 199.492188 49.871094 Z M 206.992188 87.117188 C 206.992188 82.976562 203.636719 79.617188 199.492188 79.617188 L 107.671875 79.617188 C 103.527344 79.617188 100.171875 82.972656 100.171875 87.117188 C 100.171875 91.261719 103.527344 94.617188 107.671875 94.617188 L 199.492188 94.617188 C 203.636719 94.617188 206.992188 91.257812 206.992188 87.117188 Z M 42.5 94.617188 L 82.671875 94.617188 C 86.8125 94.617188 90.171875 91.261719 90.171875 87.117188 C 90.171875 82.972656 86.8125 79.617188 82.671875 79.617188 L 42.5 79.617188 C 38.359375 79.617188 35 82.972656 35 87.117188 C 35 91.261719 38.359375 94.617188 42.5 94.617188 Z M 42.5 124.363281 L 127.554688 124.363281 C 131.695312 124.363281 135.054688 121.003906 135.054688 116.863281 C 135.054688 112.71875 131.695312 109.363281 127.554688 109.363281 L 42.5 109.363281 C 38.359375 109.363281 35 112.71875 35 116.863281 C 35 121.003906 38.359375 124.363281 42.5 124.363281 Z M 430.8125 108.871094 L 469.5 108.871094 C 473.640625 108.871094 477 105.515625 477 101.371094 C 477 97.230469 473.640625 93.871094 469.5 93.871094 L 430.8125 93.871094 C 426.671875 93.871094 423.3125 97.230469 423.3125 101.371094 C 423.3125 105.515625 426.667969 108.871094 430.8125 108.871094 Z M 469.5 123.617188 L 377.675781 123.617188 C 373.535156 123.617188 370.175781 126.972656 370.175781 131.117188 C 370.175781 135.261719 373.535156 138.617188 377.675781 138.617188 L 469.5 138.617188 C 473.640625 138.617188 477 135.261719 477 131.117188 C 477 126.972656 473.640625 123.617188 469.5 123.617188 Z M 469.5 123.617188 "/>
<path style=" stroke:none;fill-rule:nonzero;fill:rgb(0%,0%,0%);fill-opacity:1;" d="M 497.640625 44 L 284.367188 44 C 276.449219 44 270.007812 50.441406 270.007812 58.359375 L 270.007812 90.191406 L 241.992188 90.191406 L 241.992188 14.359375 C 241.992188 6.441406 235.550781 0 227.632812 0 L 107.671875 0 C 103.527344 0 100.171875 3.355469 100.171875 7.5 C 100.171875 11.644531 103.527344 15 107.671875 15 L 226.992188 15 L 226.992188 90.882812 C 211.964844 92.960938 198.375 99.601562 187.675781 109.363281 L 152.554688 109.363281 C 148.410156 109.363281 145.054688 112.71875 145.054688 116.863281 C 145.054688 121.003906 148.410156 124.363281 152.554688 124.363281 L 175.074219 124.363281 C 168.417969 134.839844 164.542969 146.839844 163.816406 159.234375 L 93.984375 159.234375 C 91.03125 159.234375 88.253906 160.382812 86.164062 162.472656 L 49.007812 199.628906 L 49.007812 170.292969 C 49.007812 164.195312 44.046875 159.234375 37.949219 159.234375 L 15 159.234375 L 15 15 L 72.671875 15 C 76.8125 15 80.171875 11.644531 80.171875 7.5 C 80.171875 3.355469 76.8125 0 72.671875 0 L 14.359375 0 C 6.441406 0 0 6.441406 0 14.359375 L 0 159.875 C 0 167.792969 6.441406 174.234375 14.359375 174.234375 L 34.007812 174.234375 L 34.007812 209.136719 C 34.007812 213.628906 36.6875 217.636719 40.835938 219.355469 C 44.96875 221.078125 49.730469 220.128906 52.890625 216.960938 L 95.617188 174.234375 L 163.6875 174.234375 L 163.6875 244.914062 C 155.738281 247.839844 150.074219 255.285156 150.074219 263.988281 C 150.074219 272.6875 155.738281 280.136719 163.6875 283.058594 L 163.6875 296.25 C 161.792969 297.714844 160.5625 299.882812 160.277344 302.261719 L 149.902344 302.261719 L 149.902344 296.976562 C 149.902344 292.335938 146.128906 288.558594 141.492188 288.558594 L 118.3125 288.558594 C 113.675781 288.558594 109.902344 292.335938 109.902344 296.976562 L 109.902344 297.132812 L 103.574219 297.132812 C 93.242188 297.132812 84.835938 305.539062 84.835938 315.871094 L 84.835938 328.960938 C 84.835938 339.296875 93.242188 347.703125 103.574219 347.703125 L 109.902344 347.703125 L 109.902344 395.058594 C 109.902344 459.539062 162.363281 512 226.84375 512 L 285.15625 512 C 349.636719 512 402.097656 459.539062 402.097656 395.058594 L 402.097656 347.703125 L 408.421875 347.703125 C 418.757812 347.703125 427.164062 339.296875 427.164062 328.960938 L 427.164062 315.871094 C 427.164062 305.539062 418.757812 297.132812 408.421875 297.132812 L 402.097656 297.132812 L 402.097656 296.976562 C 402.097656 292.335938 398.320312 288.558594 393.679688 288.558594 L 370.511719 288.558594 C 365.871094 288.558594 362.097656 292.332031 362.097656 296.96875 L 362.097656 302.261719 L 351.722656 302.261719 C 351.4375 299.882812 350.207031 297.714844 348.308594 296.25 L 348.308594 283.058594 C 356.257812 280.136719 361.925781 272.691406 361.925781 263.988281 C 361.925781 255.285156 356.257812 247.839844 348.308594 244.917969 L 348.308594 218.234375 L 416.382812 218.234375 L 459.109375 260.960938 C 462.265625 264.132812 467.03125 265.082031 471.160156 263.359375 C 475.300781 261.652344 478 257.617188 477.988281 253.140625 L 477.988281 218.234375 L 497.636719 218.234375 C 505.554688 218.234375 511.996094 211.792969 511.996094 203.875 L 511.996094 58.359375 C 512 50.441406 505.558594 44 497.640625 44 Z M 340.839844 258.59375 C 344.195312 258.59375 346.925781 261.015625 346.925781 263.988281 C 346.925781 266.964844 344.195312 269.382812 340.839844 269.382812 L 171.160156 269.382812 C 167.804688 269.382812 165.074219 266.964844 165.074219 263.988281 C 165.074219 261.015625 167.804688 258.59375 171.160156 258.59375 Z M 149.902344 342.574219 L 160.277344 342.574219 C 160.5625 344.953125 161.792969 347.121094 163.6875 348.585938 L 163.6875 388.597656 C 163.6875 429.074219 196.617188 462 237.089844 462 L 274.90625 462 C 315.382812 462 348.308594 429.070312 348.308594 388.597656 L 348.308594 348.585938 C 350.207031 347.121094 351.4375 344.953125 351.722656 342.574219 L 362.097656 342.574219 L 362.097656 395.058594 C 362.097656 437.484375 327.582031 472 285.15625 472 L 226.84375 472 C 184.417969 472 149.902344 437.480469 149.902344 395.058594 Z M 336.785156 309.382812 L 336.785156 335.453125 L 227.09375 335.453125 C 222.953125 335.453125 219.59375 338.808594 219.59375 342.953125 C 219.59375 347.09375 222.953125 350.453125 227.09375 350.453125 L 333.308594 350.453125 L 333.308594 388.597656 C 333.308594 420.800781 307.109375 447 274.90625 447 L 237.089844 447 C 204.886719 447 178.6875 420.800781 178.6875 388.597656 L 178.6875 350.453125 L 192.09375 350.453125 C 196.238281 350.453125 199.59375 347.09375 199.59375 342.953125 C 199.59375 338.808594 196.238281 335.453125 192.09375 335.453125 L 175.214844 335.453125 L 175.214844 309.382812 Z M 178.6875 294.382812 L 178.6875 284.382812 L 333.308594 284.382812 L 333.308594 294.382812 Z M 229.390625 105.695312 L 179.195312 155.890625 C 182.644531 129.835938 203.332031 109.144531 229.390625 105.695312 Z M 269.734375 105.191406 L 178.6875 196.234375 L 178.6875 177.609375 L 251.109375 105.191406 Z M 333.3125 200.9375 L 290.652344 243.59375 L 272.035156 243.59375 L 333.308594 182.320312 L 333.308594 200.9375 Z M 311.863281 243.59375 L 333.3125 222.148438 L 333.3125 243.59375 Z M 305.632812 159.558594 C 308.5625 162.488281 313.308594 162.488281 316.238281 159.558594 L 330.40625 145.390625 C 332.082031 150.488281 333.042969 155.792969 333.261719 161.15625 L 250.820312 243.59375 L 232.203125 243.59375 L 290.742188 185.058594 C 293.648438 182.125 293.640625 177.394531 290.71875 174.472656 C 287.800781 171.554688 283.070312 171.542969 280.136719 174.449219 L 210.992188 243.597656 L 192.375 243.597656 L 314.894531 121.066406 C 318.113281 124.09375 320.980469 127.472656 323.445312 131.144531 L 305.632812 148.953125 C 302.703125 151.882812 302.703125 156.628906 305.632812 159.558594 Z M 178.6875 236.066406 L 178.6875 217.449219 L 289.183594 106.953125 C 293.847656 108.132812 298.347656 109.882812 302.578125 112.171875 Z M 160.214844 317.261719 L 160.214844 327.574219 L 149.902344 327.574219 L 149.902344 317.261719 Z M 103.578125 332.703125 C 101.511719 332.703125 99.835938 331.027344 99.835938 328.964844 L 99.835938 315.875 C 99.835938 313.808594 101.511719 312.132812 103.578125 312.132812 L 109.902344 312.132812 L 109.902344 332.703125 Z M 408.421875 312.132812 C 410.488281 312.132812 412.164062 313.808594 412.164062 315.875 L 412.164062 328.964844 C 412.164062 331.027344 410.488281 332.703125 408.421875 332.703125 L 402.097656 332.703125 L 402.097656 312.132812 Z M 377.097656 303.558594 L 387.097656 303.558594 L 387.097656 395.058594 C 387.097656 451.269531 341.367188 497 285.15625 497 L 226.84375 497 C 170.632812 497 124.902344 451.269531 124.902344 395.058594 L 124.902344 303.558594 L 134.902344 303.558594 L 134.902344 395.058594 C 134.902344 445.753906 176.148438 487 226.84375 487 L 285.15625 487 C 335.851562 487 377.097656 445.753906 377.097656 395.058594 Z M 362.097656 327.574219 L 351.785156 327.574219 L 351.785156 317.261719 L 362.097656 317.261719 Z M 497 203.234375 L 474.054688 203.234375 C 467.953125 203.234375 462.992188 208.195312 462.992188 214.296875 L 462.992188 243.628906 L 425.835938 206.472656 C 423.765625 204.394531 420.949219 203.226562 418.015625 203.234375 L 348.3125 203.234375 L 348.3125 168.363281 L 430.8125 168.363281 C 434.953125 168.363281 438.3125 165.007812 438.3125 160.863281 C 438.3125 156.71875 434.953125 153.363281 430.8125 153.363281 L 347.601562 153.363281 C 346.894531 148.332031 345.667969 143.390625 343.933594 138.617188 L 352.675781 138.617188 C 356.816406 138.617188 360.175781 135.261719 360.175781 131.117188 C 360.175781 126.976562 356.816406 123.617188 352.675781 123.617188 L 336.445312 123.617188 C 332.890625 118.167969 328.632812 113.210938 323.78125 108.871094 L 405.8125 108.871094 C 409.953125 108.871094 413.3125 105.515625 413.3125 101.371094 C 413.3125 97.230469 409.953125 93.871094 405.8125 93.871094 L 312.507812 93.871094 C 309.992188 93.871094 307.644531 95.132812 306.257812 97.226562 C 299.539062 94.039062 292.371094 91.902344 285.007812 90.882812 L 285.007812 59 L 497 59 Z M 497 203.234375 "/>
<path style=" stroke:none;fill-rule:nonzero;fill:rgb(0%,0%,0%);fill-opacity:1;" d="M 256 407.40625 C 269.292969 407.40625 280.105469 396.59375 280.105469 383.300781 C 280.105469 370.007812 269.292969 359.191406 256 359.191406 C 242.707031 359.191406 231.894531 370.003906 231.894531 383.296875 C 231.894531 396.589844 242.707031 407.40625 256 407.40625 Z M 256 374.191406 C 261.023438 374.191406 265.105469 378.277344 265.105469 383.296875 C 265.105469 388.320312 261.023438 392.40625 256 392.40625 C 250.976562 392.40625 246.894531 388.320312 246.894531 383.296875 C 246.894531 378.277344 250.976562 374.191406 256 374.191406 Z M 256 374.191406 "/>
</g>
</svg>
