<?xml version="1.0" encoding="UTF-8"?>
<svg xmlns="http://www.w3.org/2000/svg" xmlns:xlink="http://www.w3.org/1999/xlink" width="511pt" height="512pt" viewBox="0 0 511 512" version="1.1">
<g id="surface3">
<path style=" stroke:none;fill-rule:nonzero;fill:rgb(100%,61.960784%,56.078431%);fill-opacity:1;" d="M 388.015625 141.25 C 388.015625 215.117188 328.136719 275 254.265625 275 C 180.398438 275 120.515625 215.117188 120.515625 141.25 C 120.515625 67.382812 180.398438 7.5 254.265625 7.5 C 328.136719 7.5 388.015625 67.382812 388.015625 141.25 Z M 388.015625 141.25 "/>
<path style=" stroke:none;fill-rule:nonzero;fill:rgb(96.862745%,46.27451%,38.039216%);fill-opacity:1;" d="M 232.679688 29.171875 C 232.679688 17.269531 242.363281 7.585938 254.265625 7.585938 L 254.238281 7.5 C 180.382812 7.515625 120.515625 67.390625 120.515625 141.25 C 120.515625 215.117188 180.398438 275 254.265625 275 L 254.265625 50.761719 C 242.363281 50.761719 232.679688 41.074219 232.679688 29.171875 Z M 232.679688 29.171875 "/>
<path style=" stroke:none;fill-rule:nonzero;fill:rgb(87.45098%,32.941176%,23.921569%);fill-opacity:1;" d="M 344.757812 141.25 C 344.757812 191.226562 304.242188 231.738281 254.265625 231.738281 C 204.289062 231.738281 163.777344 191.226562 163.777344 141.25 C 163.777344 91.273438 204.289062 50.761719 254.265625 50.761719 C 304.242188 50.761719 344.757812 91.273438 344.757812 141.25 Z M 344.757812 141.25 "/>
<path style=" stroke:none;fill-rule:nonzero;fill:rgb(100%,97.254902%,90.196078%);fill-opacity:1;" d="M 464.535156 504.5 L 47.964844 504.5 C 38.324219 504.5 30.507812 496.6875 30.507812 487.046875 L 30.507812 144.453125 C 30.507812 119.074219 51.082031 98.5 76.464844 98.5 L 436.035156 98.5 C 461.417969 98.5 481.992188 119.074219 481.992188 144.453125 L 481.992188 487.046875 C 481.992188 496.6875 474.175781 504.5 464.535156 504.5 Z M 464.535156 504.5 "/>
<path style=" stroke:none;fill-rule:nonzero;fill:rgb(100%,91.764706%,71.764706%);fill-opacity:1;" d="M 101.476562 487.046875 L 101.476562 144.453125 C 101.476562 119.074219 122.050781 98.5 147.429688 98.5 L 76.464844 98.5 C 51.082031 98.5 30.507812 119.074219 30.507812 144.453125 L 30.507812 487.046875 C 30.507812 496.6875 38.324219 504.5 47.964844 504.5 L 118.929688 504.5 C 109.289062 504.5 101.476562 496.6875 101.476562 487.046875 Z M 101.476562 487.046875 "/>
<path style=" stroke:none;fill-rule:nonzero;fill:rgb(78.823529%,80.392157%,81.176471%);fill-opacity:1;" d="M 77.332031 346.832031 L 117.332031 346.832031 L 117.332031 486.832031 L 77.332031 486.832031 Z M 77.332031 346.832031 "/>
<path style=" stroke:none;fill-rule:nonzero;fill:rgb(71.764706%,71.764706%,71.764706%);fill-opacity:1;" d="M 77.332031 346.832031 L 97.332031 346.832031 L 97.332031 486.832031 L 77.332031 486.832031 Z M 77.332031 346.832031 "/>
<path style=" stroke:none;fill-rule:nonzero;fill:rgb(48.235294%,51.764706%,60.784314%);fill-opacity:1;" d="M 122.332031 364.332031 L 72.332031 364.332031 C 64.050781 364.332031 57.332031 357.617188 57.332031 349.332031 L 57.332031 319.332031 L 137.332031 319.332031 L 137.332031 349.332031 C 137.332031 357.617188 130.617188 364.332031 122.332031 364.332031 Z M 122.332031 364.332031 "/>
<path style=" stroke:none;fill-rule:nonzero;fill:rgb(36.470588%,41.568627%,52.156863%);fill-opacity:1;" d="M 87.332031 349.332031 L 87.332031 319.332031 L 57.332031 319.332031 L 57.332031 349.332031 C 57.332031 357.617188 64.050781 364.332031 72.332031 364.332031 L 102.332031 364.332031 C 94.050781 364.332031 87.332031 357.617188 87.332031 349.332031 Z M 87.332031 349.332031 "/>
<path style=" stroke:none;fill-rule:nonzero;fill:rgb(48.235294%,51.764706%,60.784314%);fill-opacity:1;" d="M 137.332031 504.5 L 57.332031 504.5 L 57.332031 484.5 C 57.332031 476.214844 64.050781 469.5 72.332031 469.5 L 122.332031 469.5 C 130.617188 469.5 137.332031 476.214844 137.332031 484.5 Z M 137.332031 504.5 "/>
<path style=" stroke:none;fill-rule:nonzero;fill:rgb(36.470588%,41.568627%,52.156863%);fill-opacity:1;" d="M 87.332031 484.5 L 87.332031 504.5 L 57.332031 504.5 L 57.332031 484.5 C 57.332031 476.214844 64.050781 469.5 72.332031 469.5 L 102.332031 469.5 C 94.050781 469.5 87.332031 476.214844 87.332031 484.5 Z M 87.332031 484.5 "/>
<path style=" stroke:none;fill-rule:nonzero;fill:rgb(78.823529%,80.392157%,81.176471%);fill-opacity:1;" d="M 394.667969 346.832031 L 434.667969 346.832031 L 434.667969 486.832031 L 394.667969 486.832031 Z M 394.667969 346.832031 "/>
<path style=" stroke:none;fill-rule:nonzero;fill:rgb(71.764706%,71.764706%,71.764706%);fill-opacity:1;" d="M 394.667969 346.832031 L 414.667969 346.832031 L 414.667969 486.832031 L 394.667969 486.832031 Z M 394.667969 346.832031 "/>
<path style=" stroke:none;fill-rule:nonzero;fill:rgb(48.235294%,51.764706%,60.784314%);fill-opacity:1;" d="M 439.667969 364.332031 L 389.667969 364.332031 C 381.382812 364.332031 374.667969 357.617188 374.667969 349.332031 L 374.667969 319.332031 L 454.667969 319.332031 L 454.667969 349.332031 C 454.667969 357.617188 447.949219 364.332031 439.667969 364.332031 Z M 439.667969 364.332031 "/>
<path style=" stroke:none;fill-rule:nonzero;fill:rgb(36.470588%,41.568627%,52.156863%);fill-opacity:1;" d="M 404.667969 349.332031 L 404.667969 319.332031 L 374.667969 319.332031 L 374.667969 349.332031 C 374.667969 357.617188 381.382812 364.332031 389.667969 364.332031 L 419.667969 364.332031 C 411.382812 364.332031 404.667969 357.617188 404.667969 349.332031 Z M 404.667969 349.332031 "/>
<path style=" stroke:none;fill-rule:nonzero;fill:rgb(48.235294%,51.764706%,60.784314%);fill-opacity:1;" d="M 454.667969 504.5 L 374.667969 504.5 L 374.667969 484.5 C 374.667969 476.214844 381.382812 469.5 389.667969 469.5 L 439.667969 469.5 C 447.949219 469.5 454.667969 476.214844 454.667969 484.5 Z M 454.667969 504.5 "/>
<path style=" stroke:none;fill-rule:nonzero;fill:rgb(36.470588%,41.568627%,52.156863%);fill-opacity:1;" d="M 404.667969 484.5 L 404.667969 504.5 L 374.667969 504.5 L 374.667969 484.5 C 374.667969 476.214844 381.382812 469.5 389.667969 469.5 L 419.667969 469.5 C 411.382812 469.5 404.667969 476.214844 404.667969 484.5 Z M 404.667969 484.5 "/>
<path style=" stroke:none;fill-rule:nonzero;fill:rgb(100%,61.960784%,56.078431%);fill-opacity:1;" d="M 484.582031 329.332031 L 27.417969 329.332031 C 16.601562 329.332031 7.75 320.484375 7.75 309.664062 L 7.75 306 C 7.75 295.183594 16.601562 286.332031 27.417969 286.332031 L 484.585938 286.332031 C 495.402344 286.332031 504.25 295.183594 504.25 306 L 504.25 309.667969 C 504.25 320.484375 495.398438 329.332031 484.582031 329.332031 Z M 484.582031 329.332031 "/>
<path style=" stroke:none;fill-rule:nonzero;fill:rgb(96.862745%,46.27451%,38.039216%);fill-opacity:1;" d="M 111.75 309.667969 L 111.75 306 C 111.75 295.183594 120.601562 286.332031 131.417969 286.332031 L 27.417969 286.332031 C 16.601562 286.332031 7.75 295.183594 7.75 306 L 7.75 309.667969 C 7.75 320.484375 16.601562 329.335938 27.417969 329.335938 L 131.417969 329.335938 C 120.601562 329.332031 111.75 320.484375 111.75 309.667969 Z M 111.75 309.667969 "/>
<path style=" stroke:none;fill-rule:nonzero;fill:rgb(78.823529%,80.392157%,81.176471%);fill-opacity:1;" d="M 343.476562 504.5 L 172.808594 504.5 L 172.808594 393.519531 C 172.808594 380.253906 183.566406 369.5 196.832031 369.5 L 319.453125 369.5 C 332.722656 369.5 343.476562 380.253906 343.476562 393.519531 Z M 343.476562 504.5 "/>
<path style=" stroke:none;fill-rule:nonzero;fill:rgb(71.764706%,71.764706%,71.764706%);fill-opacity:1;" d="M 258.144531 369.5 L 196.832031 369.5 C 183.5625 369.5 172.808594 380.253906 172.808594 393.519531 L 172.808594 504.5 L 258.144531 504.5 Z M 258.144531 369.5 "/>
<path style=" stroke:none;fill-rule:nonzero;fill:rgb(37.647059%,85.490196%,65.882353%);fill-opacity:1;" d="M 117.851562 148.214844 C 117.851562 157.257812 110.519531 164.589844 101.476562 164.589844 C 92.433594 164.589844 85.101562 157.257812 85.101562 148.214844 C 85.101562 139.167969 92.433594 131.839844 101.476562 131.839844 C 110.519531 131.839844 117.851562 139.167969 117.851562 148.214844 Z M 117.851562 148.214844 "/>
<path style=" stroke:none;fill-rule:nonzero;fill:rgb(69.411765%,54.901961%,85.098039%);fill-opacity:1;" d="M 196.1875 148.214844 C 196.1875 157.257812 188.855469 164.589844 179.808594 164.589844 C 170.765625 164.589844 163.433594 157.257812 163.433594 148.214844 C 163.433594 139.167969 170.765625 131.839844 179.808594 131.839844 C 188.855469 131.839844 196.1875 139.167969 196.1875 148.214844 Z M 196.1875 148.214844 "/>
<path style=" stroke:none;fill-rule:nonzero;fill:rgb(97.647059%,81.960784%,44.313725%);fill-opacity:1;" d="M 274.519531 148.214844 C 274.519531 157.257812 267.1875 164.589844 258.144531 164.589844 C 249.097656 164.589844 241.765625 157.257812 241.765625 148.214844 C 241.765625 139.167969 249.097656 131.839844 258.144531 131.839844 C 267.1875 131.839844 274.519531 139.167969 274.519531 148.214844 Z M 274.519531 148.214844 "/>
<path style=" stroke:none;fill-rule:nonzero;fill:rgb(96.862745%,46.27451%,38.039216%);fill-opacity:1;" d="M 352.851562 148.214844 C 352.851562 157.257812 345.519531 164.589844 336.476562 164.589844 C 327.433594 164.589844 320.101562 157.257812 320.101562 148.214844 C 320.101562 139.167969 327.433594 131.839844 336.476562 131.839844 C 345.519531 131.839844 352.851562 139.167969 352.851562 148.214844 Z M 352.851562 148.214844 "/>
<path style=" stroke:none;fill-rule:nonzero;fill:rgb(69.411765%,54.901961%,85.098039%);fill-opacity:1;" d="M 431.1875 148.214844 C 431.1875 157.257812 423.855469 164.589844 414.808594 164.589844 C 405.765625 164.589844 398.433594 157.257812 398.433594 148.214844 C 398.433594 139.167969 405.765625 131.839844 414.808594 131.839844 C 423.855469 131.839844 431.1875 139.167969 431.1875 148.214844 Z M 431.1875 148.214844 "/>
<path style=" stroke:none;fill-rule:nonzero;fill:rgb(0%,0%,0%);fill-opacity:1;" d="M 156.125 262.007812 C 159.988281 263.484375 164.328125 261.539062 165.800781 257.667969 L 168.90625 249.519531 L 190.449219 249.519531 L 193.515625 257.648438 C 194.617188 260.570312 197.414062 262.503906 200.535156 262.503906 C 202.996094 262.503906 205.304688 261.292969 206.703125 259.269531 C 208.105469 257.242188 208.417969 254.65625 207.550781 252.351562 L 187.878906 200.230469 C 186.597656 196.855469 183.363281 194.628906 179.753906 194.636719 L 179.742188 194.636719 C 176.210938 194.632812 173.03125 196.769531 171.703125 200.039062 C 171.679688 200.097656 171.65625 200.152344 171.636719 200.210938 L 151.785156 252.332031 C 150.3125 256.203125 152.253906 260.535156 156.125 262.007812 Z M 184.785156 234.519531 L 174.617188 234.519531 L 179.726562 221.109375 Z M 305.988281 195.070312 C 302.855469 196.050781 300.71875 198.949219 300.71875 202.230469 L 300.71875 255 C 300.71875 259.144531 304.074219 262.5 308.21875 262.5 C 312.363281 262.5 315.71875 259.144531 315.71875 255 L 315.71875 226.292969 L 337.730469 258.167969 C 339.902344 261.296875 343.53125 262.628906 346.984375 261.542969 C 350.496094 260.445312 352.765625 257.179688 352.765625 253.148438 L 352.269531 202.0625 C 352.230469 197.949219 348.886719 194.636719 344.773438 194.632812 L 344.699219 194.632812 C 340.558594 194.671875 337.230469 198.0625 337.269531 202.207031 L 337.554688 231.515625 L 314.390625 197.972656 C 312.527344 195.269531 309.121094 194.097656 305.988281 195.070312 Z M 273.140625 202.132812 L 273.140625 255 C 273.140625 259.144531 276.496094 262.5 280.640625 262.5 C 284.785156 262.5 288.140625 259.144531 288.140625 255 L 288.140625 202.132812 C 288.140625 197.992188 284.785156 194.632812 280.640625 194.632812 C 276.496094 194.632812 273.140625 197.992188 273.140625 202.132812 Z M 120.695312 209.632812 C 124.492188 209.632812 128.148438 210.75 131.277344 212.863281 C 134.707031 215.082031 139.28125 214.148438 141.566406 210.765625 C 143.855469 207.378906 143.011719 202.785156 139.675781 200.433594 C 134.070312 196.644531 127.460938 194.621094 120.695312 194.632812 C 101.984375 194.632812 86.761719 209.855469 86.761719 228.566406 C 86.761719 247.277344 101.984375 262.5 120.695312 262.5 C 128.199219 262.5 134.941406 260.027344 140.191406 255.351562 C 141.230469 254.425781 142.199219 253.425781 143.09375 252.355469 C 145.757812 249.183594 145.339844 244.453125 142.164062 241.792969 C 138.992188 239.128906 134.261719 239.546875 131.601562 242.722656 C 131.167969 243.234375 130.703125 243.714844 130.214844 244.152344 C 127.71875 246.375 124.515625 247.503906 120.695312 247.503906 C 110.253906 247.503906 101.761719 239.007812 101.761719 228.570312 C 101.765625 218.128906 110.257812 209.632812 120.695312 209.632812 Z M 239.644531 247.5 C 234.636719 247.5 229.828125 245.492188 226.78125 242.125 C 223.996094 239.058594 219.253906 238.824219 216.183594 241.605469 C 213.117188 244.386719 212.882812 249.128906 215.664062 252.199219 C 221.597656 258.746094 230.339844 262.5 239.644531 262.5 C 251.21875 262.5 260.941406 255.082031 262.769531 244.859375 C 264.148438 237.132812 260.683594 227.058594 246.828125 221.945312 C 240.488281 219.605469 234.574219 217.0625 232.601562 216.203125 C 231.640625 215.367188 231.625 214.269531 231.714844 213.652344 C 231.824219 212.890625 232.394531 211.019531 235.296875 210.144531 C 242.261719 208.050781 248.796875 213.164062 249.023438 213.34375 C 252.207031 215.949219 256.894531 215.5 259.53125 212.34375 C 262.164062 209.183594 261.761719 204.492188 258.632812 201.828125 C 258.113281 201.394531 245.863281 191.296875 230.96875 195.78125 C 223.335938 198.082031 217.929688 204.113281 216.867188 211.523438 C 215.867188 218.496094 218.890625 225.203125 224.757812 229.03125 C 225.089844 229.246094 225.4375 229.433594 225.800781 229.597656 C 226.105469 229.734375 233.410156 232.984375 241.640625 236.019531 C 243.285156 236.625 248.601562 238.867188 248 242.222656 C 247.550781 244.761719 244.226562 247.5 239.644531 247.5 Z M 361.65625 228.566406 C 361.65625 247.277344 376.878906 262.5 395.589844 262.5 C 414.300781 262.5 429.523438 247.277344 429.523438 228.566406 C 429.523438 209.855469 414.300781 194.632812 395.589844 194.632812 C 376.878906 194.632812 361.65625 209.855469 361.65625 228.566406 Z M 395.589844 209.632812 C 406.03125 209.632812 414.523438 218.128906 414.523438 228.566406 C 414.523438 239.007812 406.03125 247.5 395.589844 247.5 C 385.152344 247.5 376.65625 239.007812 376.65625 228.566406 C 376.65625 218.128906 385.148438 209.632812 395.589844 209.632812 Z M 101.476562 172.089844 C 114.640625 172.089844 125.351562 161.378906 125.351562 148.214844 C 125.351562 135.050781 114.640625 124.339844 101.476562 124.339844 C 88.3125 124.339844 77.601562 135.050781 77.601562 148.214844 C 77.601562 161.378906 88.3125 172.089844 101.476562 172.089844 Z M 101.476562 139.339844 C 106.371094 139.339844 110.351562 143.320312 110.351562 148.214844 C 110.351562 153.109375 106.371094 157.089844 101.476562 157.089844 C 96.582031 157.089844 92.601562 153.109375 92.601562 148.214844 C 92.601562 143.320312 96.582031 139.339844 101.476562 139.339844 Z M 203.6875 148.214844 C 203.6875 135.050781 192.976562 124.339844 179.8125 124.339844 C 166.644531 124.339844 155.933594 135.050781 155.933594 148.214844 C 155.933594 161.378906 166.644531 172.089844 179.8125 172.089844 C 192.976562 172.089844 203.6875 161.378906 203.6875 148.214844 Z M 170.933594 148.214844 C 170.933594 143.320312 174.914062 139.339844 179.8125 139.339844 C 184.707031 139.339844 188.6875 143.320312 188.6875 148.214844 C 188.6875 153.109375 184.707031 157.089844 179.8125 157.089844 C 174.914062 157.089844 170.933594 153.109375 170.933594 148.214844 Z M 258.144531 124.339844 C 244.980469 124.339844 234.269531 135.050781 234.269531 148.214844 C 234.269531 161.378906 244.980469 172.089844 258.144531 172.089844 C 271.308594 172.089844 282.019531 161.378906 282.019531 148.214844 C 282.019531 135.050781 271.308594 124.339844 258.144531 124.339844 Z M 258.144531 157.089844 C 253.25 157.089844 249.269531 153.109375 249.269531 148.214844 C 249.269531 143.320312 253.25 139.339844 258.144531 139.339844 C 263.039062 139.339844 267.019531 143.320312 267.019531 148.214844 C 267.019531 153.109375 263.039062 157.089844 258.144531 157.089844 Z M 336.476562 172.089844 C 349.640625 172.089844 360.351562 161.378906 360.351562 148.214844 C 360.351562 135.050781 349.640625 124.339844 336.476562 124.339844 C 323.3125 124.339844 312.601562 135.050781 312.601562 148.214844 C 312.601562 161.378906 323.3125 172.089844 336.476562 172.089844 Z M 336.476562 139.339844 C 341.371094 139.339844 345.351562 143.320312 345.351562 148.214844 C 345.351562 153.109375 341.371094 157.089844 336.476562 157.089844 C 331.582031 157.089844 327.601562 153.109375 327.601562 148.214844 C 327.601562 143.320312 331.582031 139.339844 336.476562 139.339844 Z M 414.8125 172.089844 C 427.976562 172.089844 438.6875 161.378906 438.6875 148.214844 C 438.6875 135.050781 427.976562 124.339844 414.8125 124.339844 C 401.644531 124.339844 390.933594 135.050781 390.933594 148.214844 C 390.933594 161.378906 401.644531 172.089844 414.8125 172.089844 Z M 414.8125 139.339844 C 419.707031 139.339844 423.6875 143.320312 423.6875 148.214844 C 423.6875 153.109375 419.707031 157.089844 414.8125 157.089844 C 409.914062 157.089844 405.933594 153.109375 405.933594 148.214844 C 405.933594 143.320312 409.914062 139.339844 414.8125 139.339844 Z M 414.8125 139.339844 "/>
<path style=" stroke:none;fill-rule:nonzero;fill:rgb(0%,0%,0%);fill-opacity:1;" d="M 489.492188 279.285156 L 489.492188 144.453125 C 489.492188 114.980469 465.511719 91 436.035156 91 L 386.285156 91 C 365.515625 36.433594 312.910156 0 254.265625 0 C 195.542969 0 143.015625 36.40625 122.242188 91 L 92.875 91 C 88.730469 91 85.375 94.355469 85.375 98.5 C 85.375 102.644531 88.730469 106 92.875 106 L 173.222656 106 C 173.628906 106.074219 174.042969 106.113281 174.457031 106.117188 C 174.875 106.117188 175.289062 106.070312 175.699219 106 L 436.035156 106 C 457.242188 106 474.492188 123.25 474.492188 144.453125 L 474.492188 278.832031 L 432.25 278.832031 C 428.105469 278.832031 424.75 282.191406 424.75 286.332031 C 424.75 290.476562 428.105469 293.832031 432.25 293.832031 L 484.582031 293.832031 C 491.292969 293.832031 496.75 299.289062 496.75 306 L 496.75 309.667969 C 496.75 316.375 491.292969 321.832031 484.582031 321.832031 L 31.566406 321.832031 C 31.21875 321.785156 30.867188 321.75 30.507812 321.75 C 30.148438 321.75 29.796875 321.785156 29.453125 321.832031 L 27.417969 321.832031 C 20.710938 321.832031 15.25 316.375 15.25 309.667969 L 15.25 306 C 15.25 299.289062 20.710938 293.832031 27.417969 293.832031 L 402.101562 293.832031 C 406.242188 293.832031 409.601562 290.476562 409.601562 286.332031 C 409.601562 282.191406 406.242188 278.832031 402.101562 278.832031 L 38.007812 278.832031 L 38.007812 144.453125 C 38.007812 127.542969 49.320312 112.378906 65.511719 107.578125 C 68.101562 106.832031 70.089844 104.757812 70.726562 102.140625 C 71.359375 99.523438 70.542969 96.765625 68.582031 94.917969 C 66.625 93.070312 63.824219 92.414062 61.25 93.199219 C 38.734375 99.871094 23.011719 120.949219 23.011719 144.453125 L 23.011719 279.195312 C 10.117188 281.308594 0.25 292.523438 0.25 306 L 0.25 309.667969 C 0.25 323.144531 10.117188 334.355469 23.007812 336.46875 L 23.007812 487.046875 C 23.007812 500.804688 34.203125 512 47.964844 512 L 464.535156 512 C 478.296875 512 489.492188 500.804688 489.492188 487.046875 L 489.492188 336.378906 C 502.136719 334.0625 511.75 322.96875 511.75 309.667969 L 511.75 306 C 511.75 292.695312 502.136719 281.605469 489.492188 279.285156 Z M 254.265625 15 C 304.75 15 350.234375 45.203125 370.105469 91 L 338.367188 91 C 320.671875 61.464844 288.757812 43.261719 254.265625 43.261719 C 219.671875 43.261719 187.878906 61.441406 170.179688 91 L 138.417969 91 C 158.285156 45.179688 203.710938 15 254.265625 15 Z M 320.261719 91 L 188.261719 91 C 203.839844 70.542969 228.109375 58.261719 254.265625 58.261719 C 280.34375 58.261719 304.671875 70.558594 320.261719 91 Z M 367.167969 484.5 L 367.167969 497 L 350.976562 497 L 350.976562 393.519531 C 350.976562 376.140625 336.835938 362 319.457031 362 L 196.832031 362 C 179.449219 362 165.308594 376.140625 165.308594 393.519531 L 165.308594 497 L 144.832031 497 L 144.832031 484.5 C 144.832031 472.9375 136.066406 463.390625 124.832031 462.140625 L 124.832031 371.691406 C 136.066406 370.441406 144.832031 360.894531 144.832031 349.332031 L 144.832031 336.832031 L 367.164062 336.832031 L 367.164062 349.332031 C 367.164062 360.894531 375.933594 370.441406 387.164062 371.691406 L 387.164062 462.140625 C 375.933594 463.390625 367.167969 472.9375 367.167969 484.5 Z M 265.644531 377 L 319.457031 377 C 328.566406 377 335.976562 384.410156 335.976562 393.519531 L 335.976562 497 L 265.644531 497 Z M 250.644531 497 L 180.3125 497 L 180.3125 393.519531 C 180.3125 384.410156 187.722656 377 196.832031 377 L 250.644531 377 Z M 64.832031 336.832031 L 129.832031 336.832031 L 129.832031 349.332031 C 129.832031 353.46875 126.46875 356.832031 122.332031 356.832031 L 72.332031 356.832031 C 68.195312 356.832031 64.832031 353.46875 64.832031 349.332031 Z M 84.832031 371.832031 L 109.832031 371.832031 L 109.832031 462 L 84.832031 462 Z M 402.167969 371.832031 L 427.167969 371.832031 L 427.167969 462 L 402.167969 462 Z M 439.667969 356.832031 L 389.667969 356.832031 C 385.53125 356.832031 382.167969 353.46875 382.167969 349.332031 L 382.167969 336.832031 L 447.167969 336.832031 L 447.167969 349.332031 C 447.167969 353.46875 443.804688 356.832031 439.667969 356.832031 Z M 38.007812 487.046875 L 38.007812 336.832031 L 49.832031 336.832031 L 49.832031 349.332031 C 49.832031 360.894531 58.597656 370.441406 69.832031 371.691406 L 69.832031 462.140625 C 58.597656 463.390625 49.832031 472.9375 49.832031 484.5 L 49.832031 497 L 47.964844 497 C 42.476562 497 38.007812 492.535156 38.007812 487.046875 Z M 64.832031 497 L 64.832031 484.5 C 64.832031 480.363281 68.195312 477 72.332031 477 L 122.332031 477 C 126.46875 477 129.832031 480.363281 129.832031 484.5 L 129.832031 497 Z M 382.167969 497 L 382.167969 484.5 C 382.167969 480.363281 385.53125 477 389.667969 477 L 439.667969 477 C 443.804688 477 447.167969 480.363281 447.167969 484.5 L 447.167969 497 Z M 464.535156 497 L 462.167969 497 L 462.167969 484.5 C 462.167969 472.9375 453.402344 463.390625 442.167969 462.140625 L 442.167969 371.691406 C 453.402344 370.441406 462.167969 360.894531 462.167969 349.332031 L 462.167969 336.832031 L 474.492188 336.832031 L 474.492188 487.046875 C 474.492188 492.535156 470.023438 497 464.535156 497 Z M 464.535156 497 "/>
</g>
</svg>
