<?xml version="1.0" encoding="UTF-8"?>
<svg xmlns="http://www.w3.org/2000/svg" xmlns:xlink="http://www.w3.org/1999/xlink" width="512pt" height="385pt" viewBox="0 0 512 385" version="1.1">
<g id="surface3">
<path style=" stroke:none;fill-rule:evenodd;fill:rgb(100%,64.313725%,44.313725%);fill-opacity:1;" d="M 336.816406 70.667969 C 384.238281 70.667969 454.03125 153.640625 454.03125 256 C 454.03125 358.359375 384.238281 441.359375 336.816406 441.359375 C 289.390625 441.359375 219.601562 358.359375 219.601562 256 C 219.605469 153.640625 289.390625 70.667969 336.816406 70.667969 Z M 336.816406 70.667969 "/>
<path style=" stroke:none;fill-rule:evenodd;fill:rgb(94.901961%,58.431373%,41.568627%);fill-opacity:1;" d="M 376.304688 86.089844 C 415.535156 114.664062 454.03125 180.003906 454.03125 256 C 454.03125 358.359375 384.238281 441.359375 336.816406 441.359375 C 317.992188 441.359375 295.65625 428.261719 275.558594 406.125 C 287.265625 413.210938 298.859375 417.09375 309.375 417.09375 C 358.074219 417.09375 429.765625 334.097656 429.765625 231.734375 C 429.765625 172.660156 405.871094 120.019531 376.304688 86.089844 Z M 376.304688 86.089844 "/>
<path style=" stroke:none;fill-rule:evenodd;fill:rgb(100%,39.215686%,44.313725%);fill-opacity:1;" d="M 405.585938 114.71875 L 268.046875 114.71875 C 260.082031 124.699219 252.628906 136.121094 246.078125 148.707031 L 427.554688 148.707031 C 421.007812 136.121094 413.550781 124.695312 405.585938 114.71875 Z M 405.585938 397.675781 L 268.046875 397.675781 C 260.082031 387.699219 252.628906 376.277344 246.078125 363.691406 L 427.554688 363.691406 C 421.007812 376.273438 413.550781 387.699219 405.585938 397.675781 Z M 405.585938 397.675781 "/>
<path style=" stroke:none;fill-rule:evenodd;fill:rgb(100%,25.098039%,33.72549%);fill-opacity:1;" d="M 405.585938 397.675781 C 413.550781 387.699219 421.007812 376.277344 427.554688 363.691406 L 387.191406 363.691406 C 377.269531 377.382812 366.355469 388.890625 355.269531 397.675781 Z M 405.585938 397.675781 "/>
<path style=" stroke:none;fill-rule:evenodd;fill:rgb(100%,94.117647%,67.843137%);fill-opacity:1;" d="M 401.363281 271.476562 L 496.75 271.476562 C 501.003906 271.476562 504.515625 274.964844 504.515625 279.246094 L 504.515625 433.59375 C 504.515625 437.871094 501.003906 441.359375 496.75 441.359375 L 401.363281 441.359375 C 397.082031 441.359375 393.59375 437.875 393.59375 433.59375 L 393.59375 279.242188 C 393.597656 274.964844 397.082031 271.476562 401.363281 271.476562 Z M 401.363281 271.476562 "/>
<path style=" stroke:none;fill-rule:evenodd;fill:rgb(94.901961%,58.431373%,41.568627%);fill-opacity:1;" d="M 143.890625 441.359375 C 219.007812 441.359375 280.265625 380.101562 280.265625 304.984375 C 280.265625 229.863281 219.007812 168.578125 143.890625 168.578125 C 68.769531 168.578125 7.511719 229.863281 7.511719 304.984375 C 7.511719 380.101562 68.769531 441.359375 143.890625 441.359375 Z M 143.890625 441.359375 "/>
<path style=" stroke:none;fill-rule:evenodd;fill:rgb(89.411765%,51.372549%,35.686275%);fill-opacity:1;" d="M 227.425781 197.152344 C 259.570312 222.125 280.265625 261.128906 280.265625 304.984375 C 280.265625 380.300781 219.207031 441.359375 143.890625 441.359375 C 100.035156 441.359375 61.03125 420.667969 36.085938 388.519531 C 59.160156 406.40625 88.128906 417.09375 119.621094 417.09375 C 194.941406 417.09375 256 356.035156 256 280.691406 C 256 249.226562 245.34375 220.253906 227.425781 197.152344 Z M 227.425781 197.152344 "/>
<path style=" stroke:none;fill-rule:evenodd;fill:rgb(70.196078%,85.490196%,99.607843%);fill-opacity:1;" d="M 304.785156 427.46875 C 304.785156 435.09375 298.519531 441.359375 290.894531 441.359375 L 211.410156 441.359375 C 203.757812 441.359375 197.519531 435.09375 197.519531 427.46875 L 197.519531 347.984375 C 197.519531 340.332031 203.757812 334.097656 211.410156 334.097656 L 290.894531 334.097656 C 298.519531 334.097656 304.785156 340.332031 304.785156 347.984375 Z M 304.785156 427.46875 "/>
<path style=" stroke:none;fill-rule:evenodd;fill:rgb(54.117647%,78.823529%,99.607843%);fill-opacity:1;" d="M 304.785156 427.46875 C 304.785156 435.09375 298.519531 441.359375 290.894531 441.359375 L 211.410156 441.359375 C 203.757812 441.359375 197.519531 435.09375 197.519531 427.46875 L 197.519531 417.09375 L 265.949219 417.09375 C 273.972656 417.09375 280.519531 410.546875 280.519531 402.523438 L 280.519531 334.097656 L 290.894531 334.097656 C 298.519531 334.097656 304.785156 340.332031 304.785156 347.984375 Z M 304.785156 427.46875 "/>
<path style=" stroke:none;fill-rule:evenodd;fill:rgb(100%,88.235294%,46.666667%);fill-opacity:1;" d="M 480.253906 271.476562 L 496.75 271.476562 C 501.003906 271.476562 504.515625 274.964844 504.515625 279.246094 L 504.515625 433.59375 C 504.515625 437.871094 501.003906 441.359375 496.75 441.359375 L 401.363281 441.359375 C 397.082031 441.359375 393.59375 437.875 393.59375 433.59375 L 393.59375 417.097656 L 465.679688 417.097656 C 473.675781 417.097656 480.25 410.546875 480.25 402.527344 L 480.25 271.476562 Z M 480.253906 271.476562 "/>
<path style=" stroke:none;fill-rule:evenodd;fill:rgb(100%,25.098039%,33.72549%);fill-opacity:1;" d="M 397.054688 114.71875 C 403.570312 125.566406 409.175781 136.933594 413.808594 148.707031 L 427.554688 148.707031 C 421.007812 136.121094 413.550781 124.695312 405.585938 114.71875 Z M 397.054688 114.71875 "/>
<path style=" stroke:none;fill-rule:nonzero;fill:rgb(0%,0%,0%);fill-opacity:1;" d="M 194.007812 439.855469 C 187.257812 442.378906 180.230469 444.390625 172.945312 445.894531 C 163.382812 447.847656 153.648438 448.835938 143.890625 448.84375 C 105.59375 448.84375 69.222656 433.789062 42.152344 406.71875 C 16.101562 380.667969 0 344.695312 0 304.984375 C 0 280.378906 6.234375 256.339844 18.226562 234.882812 C 30.261719 213.371094 47.589844 195.289062 68.570312 182.355469 C 72.085938 180.199219 76.707031 181.304688 78.890625 184.820312 C 81.042969 188.335938 79.9375 192.957031 76.421875 195.136719 C 69.324219 199.492188 62.667969 204.535156 56.554688 210.191406 C 68.398438 217.429688 81.089844 223.191406 94.339844 227.339844 C 107.976562 231.585938 122.105469 234.050781 136.378906 234.683594 L 136.378906 176.289062 C 132.351562 176.515625 128.382812 176.9375 124.472656 177.535156 C 118.070312 178.5 111.75 179.941406 105.5625 181.84375 C 101.625 183.0625 97.429688 180.851562 96.210938 176.910156 C 95.019531 172.941406 97.230469 168.777344 101.171875 167.558594 C 108.058594 165.429688 115.089844 163.785156 122.234375 162.710938 C 129.402344 161.628906 136.640625 161.085938 143.890625 161.09375 C 172.121094 161.09375 199.507812 169.257812 223.089844 184.820312 C 232.246094 155.480469 247.269531 126.90625 267.539062 103.605469 C 289.648438 78.238281 315.074219 63.15625 336.816406 63.15625 C 356.378906 63.15625 378.882812 75.347656 399.265625 96.238281 C 420.382812 117.894531 436.371094 145.390625 446.71875 173.539062 C 448.132812 177.421875 446.148438 181.730469 442.265625 183.148438 C 438.382812 184.566406 434.074219 182.582031 432.65625 178.699219 C 429.839844 171.027344 426.613281 163.515625 422.992188 156.191406 L 250.644531 156.191406 C 244.582031 168.429688 239.640625 181.191406 235.875 194.316406 C 239.265625 197.144531 242.53125 200.121094 245.652344 203.246094 C 278.109375 235.703125 292.964844 281.257812 286.132812 326.585938 L 290.894531 326.585938 C 296.789062 326.585938 302.121094 328.992188 306.003906 332.878906 C 310.023438 336.875 312.277344 342.316406 312.269531 347.984375 L 312.269531 356.203125 L 386.085938 356.203125 L 386.085938 271.476562 C 386.085938 267.339844 389.457031 263.992188 393.597656 263.992188 L 446.40625 263.992188 C 446.800781 253.761719 446.40625 243.242188 445.355469 233.097656 C 444.539062 225.433594 443.335938 217.820312 441.757812 210.277344 C 440.90625 206.222656 443.484375 202.253906 447.539062 201.433594 C 451.59375 200.582031 455.5625 203.191406 456.382812 207.214844 C 458.085938 215.269531 459.375 223.40625 460.238281 231.59375 C 461.371094 242.449219 461.710938 253.078125 461.371094 263.992188 L 504.515625 263.992188 C 506.503906 263.992188 508.40625 264.78125 509.808594 266.183594 C 511.214844 267.585938 512 269.492188 512 271.476562 L 512 441.359375 C 512 443.34375 511.214844 445.25 509.808594 446.652344 C 508.40625 448.054688 506.503906 448.84375 504.515625 448.84375 L 393.597656 448.84375 C 389.457031 448.84375 386.085938 445.496094 386.085938 441.359375 L 386.085938 427.835938 C 380.242188 432.601562 374.320312 436.597656 368.421875 439.800781 C 357.566406 445.695312 346.824219 448.84375 336.816406 448.84375 C 326.585938 448.84375 316.492188 445.582031 307.449219 440.988281 C 303.367188 445.949219 297.328125 448.84375 290.894531 448.84375 L 211.410156 448.84375 C 205.738281 448.855469 200.296875 446.601562 196.300781 442.578125 C 195.460938 441.738281 194.691406 440.828125 194.007812 439.855469 Z M 323.578125 205.457031 C 319.441406 205.457031 316.097656 202.085938 316.097656 197.945312 C 316.097656 193.804688 319.441406 190.460938 323.578125 190.460938 L 329.304688 190.460938 L 329.304688 181.191406 C 329.304688 177.054688 332.679688 173.710938 336.816406 173.710938 C 340.957031 173.710938 344.328125 177.054688 344.328125 181.191406 L 344.328125 190.460938 L 350.054688 190.460938 C 354.195312 190.460938 357.539062 193.808594 357.539062 197.945312 C 357.539062 202.082031 354.195312 205.457031 350.054688 205.457031 L 344.328125 205.457031 L 344.328125 219.574219 L 350.054688 219.574219 C 354.195312 219.574219 357.539062 222.949219 357.539062 227.085938 C 357.539062 231.226562 354.195312 234.570312 350.054688 234.570312 L 344.328125 234.570312 L 344.328125 248.6875 L 350.054688 248.6875 C 354.195312 248.6875 357.539062 252.058594 357.539062 256.199219 C 357.539062 260.335938 354.195312 263.710938 350.054688 263.710938 L 344.328125 263.710938 L 344.328125 277.828125 L 350.054688 277.828125 C 352.042969 277.824219 353.945312 278.613281 355.347656 280.015625 C 356.753906 281.421875 357.539062 283.324219 357.539062 285.308594 C 357.539062 289.449219 354.195312 292.824219 350.054688 292.824219 L 344.328125 292.824219 L 344.328125 306.941406 L 350.054688 306.941406 C 354.195312 306.941406 357.539062 310.3125 357.539062 314.453125 C 357.539062 318.589844 354.195312 321.933594 350.054688 321.933594 L 344.328125 321.933594 L 344.328125 331.203125 C 344.328125 335.34375 340.957031 338.6875 336.816406 338.6875 C 332.679688 338.6875 329.304688 335.34375 329.304688 331.203125 L 329.304688 321.933594 L 323.578125 321.933594 C 321.59375 321.9375 319.6875 321.148438 318.285156 319.746094 C 316.882812 318.339844 316.09375 316.4375 316.097656 314.453125 C 316.097656 310.3125 319.441406 306.941406 323.578125 306.941406 L 329.304688 306.941406 L 329.304688 292.824219 L 323.578125 292.824219 C 319.441406 292.824219 316.097656 289.449219 316.097656 285.308594 C 316.09375 283.324219 316.882812 281.421875 318.285156 280.015625 C 319.6875 278.613281 321.59375 277.824219 323.578125 277.828125 L 329.304688 277.828125 L 329.304688 263.710938 L 323.578125 263.710938 C 319.441406 263.710938 316.097656 260.335938 316.097656 256.199219 C 316.097656 252.058594 319.441406 248.6875 323.578125 248.6875 L 329.304688 248.6875 L 329.304688 234.570312 L 323.578125 234.570312 C 319.441406 234.570312 316.097656 231.226562 316.097656 227.085938 C 316.097656 222.949219 319.441406 219.574219 323.578125 219.574219 L 329.304688 219.574219 L 329.304688 205.457031 Z M 312.238281 390.164062 L 386.085938 390.164062 L 386.085938 371.199219 L 312.238281 371.199219 Z M 312.238281 405.160156 L 312.238281 426.589844 C 319.667969 430.617188 328.285156 433.847656 336.816406 433.847656 C 344.355469 433.847656 352.660156 431.351562 361.277344 426.675781 C 369.472656 422.226562 377.890625 415.847656 386.085938 407.796875 L 386.085938 405.160156 Z M 297.300781 347.984375 L 297.273438 347.984375 C 297.273438 346.226562 296.5625 344.640625 295.402344 343.476562 C 294.238281 342.316406 292.652344 341.578125 290.894531 341.578125 L 211.410156 341.578125 C 209.652344 341.578125 208.066406 342.316406 206.902344 343.476562 C 205.738281 344.640625 205.003906 346.226562 205.003906 347.984375 L 205.003906 427.46875 C 205.003906 429.226562 205.738281 430.8125 206.902344 431.976562 C 208.09375 433.175781 209.71875 433.851562 211.410156 433.847656 L 290.894531 433.847656 C 292.585938 433.847656 294.207031 433.175781 295.402344 431.976562 C 296.589844 430.785156 297.300781 429.171875 297.300781 427.46875 Z M 414.800781 141.195312 C 410.746094 134.421875 406.4375 128.070312 401.957031 122.230469 L 271.703125 122.230469 C 267.050781 128.296875 262.753906 134.628906 258.835938 141.195312 Z M 389.089844 107.234375 C 376.332031 93.996094 356.179688 78.152344 336.816406 78.152344 C 321.140625 78.152344 302.261719 88.867188 284.574219 107.234375 Z M 243.640625 385.261719 C 243.640625 381.121094 247.015625 377.777344 251.152344 377.777344 C 255.292969 377.777344 258.664062 381.121094 258.664062 385.261719 L 258.664062 390.164062 C 258.667969 392.15625 257.875 394.070312 256.46875 395.476562 C 255.058594 396.886719 253.148438 397.679688 251.152344 397.675781 C 249.160156 397.679688 247.25 396.886719 245.839844 395.480469 C 244.429688 394.070312 243.640625 392.15625 243.640625 390.164062 Z M 266.175781 406.152344 C 266.175781 402.015625 269.550781 398.667969 273.6875 398.667969 C 277.828125 398.667969 281.199219 402.015625 281.199219 406.152344 L 281.199219 411.085938 C 281.199219 415.222656 277.828125 418.570312 273.6875 418.570312 C 269.550781 418.570312 266.175781 415.222656 266.175781 411.085938 Z M 221.105469 364.367188 C 221.105469 360.230469 224.476562 356.855469 228.617188 356.855469 C 232.757812 356.855469 236.101562 360.230469 236.101562 364.367188 L 236.101562 369.273438 C 236.101562 373.410156 232.753906 376.785156 228.617188 376.785156 C 224.480469 376.785156 221.105469 373.410156 221.105469 369.273438 Z M 266.175781 364.367188 C 266.175781 360.230469 269.550781 356.855469 273.6875 356.855469 C 277.828125 356.855469 281.199219 360.230469 281.199219 364.367188 L 281.199219 369.273438 C 281.199219 373.410156 277.828125 376.785156 273.6875 376.785156 C 269.550781 376.785156 266.175781 373.410156 266.175781 369.273438 Z M 221.105469 406.152344 C 221.105469 402.015625 224.476562 398.667969 228.617188 398.667969 C 232.757812 398.667969 236.101562 402.015625 236.101562 406.152344 L 236.101562 411.085938 C 236.101562 415.222656 232.753906 418.570312 228.617188 418.570312 C 224.480469 418.570312 221.105469 415.222656 221.105469 411.085938 Z M 270.96875 326.585938 C 271.765625 321.914062 272.296875 317.199219 272.554688 312.46875 L 151.398438 312.46875 L 151.398438 360.230469 C 158.375 360.542969 165.316406 361.222656 172.207031 362.328125 C 178.242188 363.265625 184.195312 364.511719 190.007812 366.042969 L 190.007812 347.984375 C 190.003906 342.3125 192.269531 336.871094 196.300781 332.878906 C 200.296875 328.847656 205.734375 326.582031 211.410156 326.585938 Z M 190.007812 381.546875 C 183.410156 379.648438 176.695312 378.160156 169.910156 377.097656 C 163.78125 376.117188 157.601562 375.5 151.398438 375.253906 L 151.398438 433.648438 C 157.75 433.28125 163.957031 432.488281 169.96875 431.238281 C 176.796875 429.824219 183.5 427.851562 190.007812 425.34375 Z M 45.921875 221.191406 C 40.378906 227.679688 35.480469 234.695312 31.296875 242.136719 C 22.054688 258.664062 16.355469 277.429688 15.222656 297.46875 L 136.378906 297.46875 L 136.378906 249.707031 C 120.582031 249.066406 104.941406 246.351562 89.859375 241.628906 C 74.296875 236.78125 59.558594 229.863281 45.921875 221.191406 Z M 15.222656 312.46875 C 16.894531 341.523438 28.175781 367.96875 45.949219 388.746094 C 59.558594 380.074219 74.296875 373.15625 89.859375 368.308594 C 104.941406 363.585938 120.582031 360.871094 136.378906 360.230469 L 136.378906 312.46875 Z M 56.554688 399.746094 C 77.8125 419.335938 105.648438 431.863281 136.378906 433.648438 L 136.378906 375.253906 C 122.105469 375.882812 107.976562 378.351562 94.339844 382.59375 C 81.089844 386.746094 68.398438 392.507812 56.554688 399.746094 Z M 151.398438 176.289062 L 151.398438 234.683594 C 165.679688 234.050781 179.816406 231.582031 193.464844 227.34375 C 206.703125 223.1875 219.386719 217.425781 231.226562 210.191406 C 209.9375 190.574219 182.070312 178.074219 151.398438 176.289062 Z M 241.855469 221.191406 C 228.21875 229.863281 213.480469 236.78125 197.917969 241.628906 C 182.832031 246.351562 167.191406 249.070312 151.398438 249.707031 L 151.398438 297.472656 L 272.554688 297.472656 C 270.882812 268.386719 259.601562 241.941406 241.855469 221.191406 Z M 497.003906 297.953125 L 497.003906 278.988281 L 401.078125 278.988281 L 401.078125 297.953125 L 432.0625 297.953125 C 436.199219 297.953125 439.574219 301.328125 439.574219 305.464844 C 439.574219 309.605469 436.199219 312.949219 432.0625 312.949219 L 401.078125 312.949219 L 401.078125 331.941406 L 497.003906 331.941406 L 497.003906 312.949219 L 466.050781 312.949219 C 461.882812 312.949219 458.535156 309.601562 458.535156 305.464844 C 458.535156 301.328125 461.882812 297.953125 466.050781 297.953125 Z M 432.0625 365.898438 C 436.199219 365.898438 439.574219 369.273438 439.574219 373.410156 C 439.574219 377.550781 436.199219 380.894531 432.0625 380.894531 L 401.078125 380.894531 L 401.078125 399.886719 L 497.003906 399.886719 L 497.003906 380.894531 L 466.050781 380.894531 C 461.882812 380.894531 458.535156 377.550781 458.535156 373.410156 C 458.535156 369.273438 461.882812 365.898438 466.050781 365.898438 L 497.003906 365.898438 L 497.003906 346.9375 L 401.078125 346.9375 L 401.078125 365.898438 Z M 497.003906 414.882812 L 401.078125 414.882812 L 401.078125 433.847656 L 497.003906 433.847656 Z M 497.003906 414.882812 "/>
</g>
</svg>
