<svg xmlns="http://www.w3.org/2000/svg" xmlns:xlink="http://www.w3.org/1999/xlink" version="1.1" width="1000" height="1000" viewBox="0 0 1000 1000" xml:space="preserve">
<desc>Created with Fabric.js 3.5.0</desc>
<defs>
</defs>
<rect x="0" y="0" width="100%" height="100%" fill="#ffffff"/>
<g transform="matrix(0.9981 0 0 0.9981 301.4672 350.3515)" id="945926">
<g style="" vector-effect="non-scaling-stroke">
		<g transform="matrix(1 0 0 1 80.8165 0.0145)">
<path style="stroke: none; stroke-width: 1; stroke-dasharray: none; stroke-linecap: butt; stroke-dashoffset: 0; stroke-linejoin: miter; stroke-miterlimit: 4; is-custom-font: none; font-file-url: none; fill: rgb(255,164,113); fill-rule: evenodd; opacity: 1;" transform=" translate(-336.8165, -256.014)" d="M 336.816 70.669 C 384.24 70.669 454.03 153.64 454.03 256 c 0 102.359 -69.79 185.359 -117.214 185.359 c -47.425 0 -117.213 -83 -117.213 -185.359 c 0.001 -102.36 69.789 -185.331 117.213 -185.331 z" stroke-linecap="round"/>
</g>
		<g transform="matrix(1 0 0 1 108.7945 7.7245)">
<path style="stroke: none; stroke-width: 1; stroke-dasharray: none; stroke-linecap: butt; stroke-dashoffset: 0; stroke-linejoin: miter; stroke-miterlimit: 4; is-custom-font: none; font-file-url: none; fill: rgb(242,149,106); fill-rule: evenodd; opacity: 1;" transform=" translate(-364.7945, -263.724)" d="M 376.303 86.089 C 415.536 114.663 454.03 180.002 454.03 256 c 0 102.359 -69.79 185.359 -117.214 185.359 c -18.822 0 -41.159 -13.097 -61.257 -35.235 c 11.707 7.088 23.302 10.971 33.817 10.971 c 48.699 0 120.389 -82.999 120.389 -185.359 c 0.001 -59.076 -23.895 -111.715 -53.462 -145.647 z" stroke-linecap="round"/>
</g>
		<g transform="matrix(1 0 0 1 80.817 0.199)">
<path style="stroke: none; stroke-width: 1; stroke-dasharray: none; stroke-linecap: butt; stroke-dashoffset: 0; stroke-linejoin: miter; stroke-miterlimit: 4; is-custom-font: none; font-file-url: none; fill: rgb(255,100,113); fill-rule: evenodd; opacity: 1;" transform=" translate(-336.817, -256.1985)" d="M 405.586 114.72 H 268.048 c -7.966 9.978 -15.421 21.402 -21.969 33.987 h 181.476 c -6.548 -12.585 -14.003 -24.01 -21.969 -33.987 z m 0 282.957 H 268.048 c -7.966 -9.978 -15.421 -21.401 -21.969 -33.987 h 181.476 c -6.548 12.585 -14.003 24.009 -21.969 33.987 z" stroke-linecap="round"/>
</g>
		<g transform="matrix(1 0 0 1 135.413 124.684)">
<path style="stroke: none; stroke-width: 1; stroke-dasharray: none; stroke-linecap: butt; stroke-dashoffset: 0; stroke-linejoin: miter; stroke-miterlimit: 4; is-custom-font: none; font-file-url: none; fill: rgb(255,64,86); fill-rule: evenodd; opacity: 1;" transform=" translate(-391.413, -380.6835)" d="M 405.586 397.677 c 7.966 -9.978 15.421 -21.401 21.969 -33.987 H 387.19 c -9.922 13.691 -20.836 25.2 -31.919 33.987 h 50.004 z" stroke-linecap="round"/>
</g>
		<g transform="matrix(1 0 0 1 193.056 100.42)">
<path style="stroke: none; stroke-width: 1; stroke-dasharray: none; stroke-linecap: butt; stroke-dashoffset: 0; stroke-linejoin: miter; stroke-miterlimit: 4; is-custom-font: none; font-file-url: none; fill: rgb(255,240,173); fill-rule: evenodd; opacity: 1;" transform=" translate(-449.056, -356.4195)" d="M 401.362 271.478 h 95.388 c 4.252 0 7.767 3.486 7.767 7.767 v 154.349 c 0 4.279 -3.515 7.767 -7.767 7.767 h -95.388 c -4.28 0 -7.767 -3.487 -7.767 -7.767 v -154.35 c 0.001 -4.28 3.487 -7.766 7.767 -7.766 z" stroke-linecap="round"/>
</g>
		<g transform="matrix(1 0 0 1 -112.1115 48.969)">
<path style="stroke: none; stroke-width: 1; stroke-dasharray: none; stroke-linecap: butt; stroke-dashoffset: 0; stroke-linejoin: miter; stroke-miterlimit: 4; is-custom-font: none; font-file-url: none; fill: rgb(242,149,106); fill-rule: evenodd; opacity: 1;" transform=" translate(-143.8885, -304.9685)" d="M 143.889 441.359 c 75.119 0 136.376 -61.258 136.376 -136.376 c 0 -75.119 -61.257 -136.405 -136.376 -136.405 S 7.512 229.864 7.512 304.983 S 68.77 441.359 143.889 441.359 z" stroke-linecap="round"/>
</g>
		<g transform="matrix(1 0 0 1 -97.825 63.2555)">
<path style="stroke: none; stroke-width: 1; stroke-dasharray: none; stroke-linecap: butt; stroke-dashoffset: 0; stroke-linejoin: miter; stroke-miterlimit: 4; is-custom-font: none; font-file-url: none; fill: rgb(228,131,91); fill-rule: evenodd; opacity: 1;" transform=" translate(-158.175, -319.255)" d="M 227.427 197.151 c 32.144 24.975 52.838 63.979 52.838 107.832 c 0 75.316 -61.058 136.376 -136.376 136.376 c -43.853 0 -82.857 -20.692 -107.804 -52.838 c 23.075 17.887 52.045 28.573 83.538 28.573 C 194.94 417.095 256 356.035 256 280.69 c 0 -31.464 -10.658 -60.435 -28.573 -83.539 z" stroke-linecap="round"/>
</g>
		<g transform="matrix(1 0 0 1 -4.8475 131.7285)">
<path style="stroke: none; stroke-width: 1; stroke-dasharray: none; stroke-linecap: butt; stroke-dashoffset: 0; stroke-linejoin: miter; stroke-miterlimit: 4; is-custom-font: none; font-file-url: none; fill: rgb(179,218,254); fill-rule: evenodd; opacity: 1;" transform=" translate(-251.1525, -387.728)" d="M 304.785 427.47 c 0 7.625 -6.266 13.89 -13.891 13.89 H 211.41 c -7.653 0 -13.89 -6.265 -13.89 -13.89 v -79.484 c 0 -7.653 6.236 -13.89 13.89 -13.89 h 79.484 c 7.625 0 13.891 6.236 13.891 13.89 z" stroke-linecap="round"/>
</g>
		<g transform="matrix(1 0 0 1 -4.8475 131.7285)">
<path style="stroke: none; stroke-width: 1; stroke-dasharray: none; stroke-linecap: butt; stroke-dashoffset: 0; stroke-linejoin: miter; stroke-miterlimit: 4; is-custom-font: none; font-file-url: none; fill: rgb(138,201,254); fill-rule: evenodd; opacity: 1;" transform=" translate(-251.1525, -387.728)" d="M 304.785 427.47 c 0 7.625 -6.266 13.89 -13.891 13.89 H 211.41 c -7.653 0 -13.89 -6.265 -13.89 -13.89 v -10.375 h 68.43 c 8.022 0 14.569 -6.548 14.569 -14.57 v -68.429 h 10.375 c 7.625 0 13.891 6.236 13.891 13.89 z" stroke-linecap="round"/>
</g>
		<g transform="matrix(1 0 0 1 193.056 100.42)">
<path style="stroke: none; stroke-width: 1; stroke-dasharray: none; stroke-linecap: butt; stroke-dashoffset: 0; stroke-linejoin: miter; stroke-miterlimit: 4; is-custom-font: none; font-file-url: none; fill: rgb(255,225,119); fill-rule: evenodd; opacity: 1;" transform=" translate(-449.056, -356.4195)" d="M 480.252 271.478 h 16.498 c 4.252 0 7.767 3.486 7.767 7.767 v 154.349 c 0 4.279 -3.515 7.767 -7.767 7.767 h -95.388 c -4.28 0 -7.767 -3.487 -7.767 -7.767 v -16.498 h 72.085 c 7.995 0 14.571 -6.548 14.571 -14.57 V 271.478 z" stroke-linecap="round"/>
</g>
		<g transform="matrix(1 0 0 1 156.3045 -124.286)">
<path style="stroke: none; stroke-width: 1; stroke-dasharray: none; stroke-linecap: butt; stroke-dashoffset: 0; stroke-linejoin: miter; stroke-miterlimit: 4; is-custom-font: none; font-file-url: none; fill: rgb(255,64,86); fill-rule: evenodd; opacity: 1;" transform=" translate(-412.3045, -131.7135)" d="M 397.054 114.72 a 228.21 228.21 0 0 1 16.753 33.987 h 13.748 c -6.548 -12.585 -14.003 -24.01 -21.969 -33.987 z" stroke-linecap="round"/>
</g>
		<g transform="matrix(1 0 0 1 0 0)">
<path style="stroke: none; stroke-width: 1; stroke-dasharray: none; stroke-linecap: butt; stroke-dashoffset: 0; stroke-linejoin: miter; stroke-miterlimit: 4; is-custom-font: none; font-file-url: none; fill: rgb(0,0,0); fill-rule: nonzero; opacity: 1;" transform=" translate(-256, -255.9995)" d="M 194.006 439.856 c -6.747 2.523 -13.777 4.536 -21.062 6.038 a 145.528 145.528 0 0 1 -29.055 2.948 c -38.297 0 -74.665 -15.052 -101.737 -42.123 C 16.102 380.668 0 344.697 0 304.983 c 0 -24.605 6.236 -48.644 18.227 -70.102 a 144.73 144.73 0 0 1 50.345 -52.527 c 3.515 -2.154 8.136 -1.049 10.318 2.466 c 2.154 3.516 1.049 8.136 -2.467 10.318 a 127.133 127.133 0 0 0 -19.87 15.053 a 169.731 169.731 0 0 0 37.785 17.15 a 166.24 166.24 0 0 0 42.039 7.342 v -58.395 c -4.025 0.227 -7.994 0.651 -11.906 1.247 a 130.177 130.177 0 0 0 -18.907 4.309 c -3.94 1.219 -8.136 -0.992 -9.354 -4.933 c -1.19 -3.969 1.021 -8.135 4.961 -9.354 c 6.888 -2.126 13.918 -3.77 21.062 -4.847 a 144.047 144.047 0 0 1 21.657 -1.616 c 28.233 0 55.616 8.164 79.201 23.726 c 9.155 -29.338 24.18 -57.912 44.447 -81.213 c 22.11 -25.37 47.538 -40.45 69.279 -40.45 c 19.56 0 42.066 12.189 62.448 33.08 c 21.118 21.656 37.105 49.153 47.452 77.302 c 1.417 3.884 -0.567 8.192 -4.45 9.609 c -3.884 1.418 -8.192 -0.566 -9.609 -4.45 a 227.933 227.933 0 0 0 -9.666 -22.507 H 250.643 a 227.119 227.119 0 0 0 -14.769 38.125 a 146.02 146.02 0 0 1 9.779 8.93 c 32.457 32.458 47.311 78.011 40.479 123.338 h 4.763 c 5.896 0 11.227 2.409 15.109 6.293 a 21.272 21.272 0 0 1 6.265 15.108 v 8.22 h 73.815 v -84.728 c 0 -4.139 3.373 -7.484 7.512 -7.484 h 52.81 c 0.396 -10.232 0 -20.749 -1.049 -30.897 a 230.582 230.582 0 0 0 -3.6 -22.819 c -0.85 -4.054 1.729 -8.022 5.782 -8.845 c 4.054 -0.85 8.022 1.758 8.844 5.783 a 238.586 238.586 0 0 1 3.855 24.379 c 1.134 10.856 1.474 21.486 1.134 32.399 h 43.145 a 7.477 7.477 0 0 1 7.483 7.484 v 169.882 a 7.476 7.476 0 0 1 -7.483 7.483 H 393.596 c -4.139 0 -7.512 -3.345 -7.512 -7.483 v -13.522 c -5.841 4.763 -11.765 8.759 -17.661 11.962 c -10.857 5.896 -21.6 9.043 -31.607 9.043 c -10.232 0 -20.324 -3.26 -29.367 -7.852 c -4.081 4.96 -10.12 7.852 -16.555 7.852 H 211.41 a 21.218 21.218 0 0 1 -15.108 -6.265 a 20.599 20.599 0 0 1 -2.296 -2.721 z m 129.573 -234.399 c -4.139 0 -7.483 -3.373 -7.483 -7.512 s 3.345 -7.483 7.483 -7.483 h 5.726 v -9.27 c 0 -4.139 3.373 -7.483 7.512 -7.483 s 7.512 3.345 7.512 7.483 v 9.27 h 5.727 c 4.139 0 7.483 3.345 7.483 7.483 s -3.345 7.512 -7.483 7.512 h -5.727 v 14.118 h 5.727 c 4.139 0 7.483 3.373 7.483 7.512 s -3.345 7.482 -7.483 7.482 h -5.727 v 14.117 h 5.727 c 4.139 0 7.483 3.373 7.483 7.512 s -3.345 7.512 -7.483 7.512 h -5.727 v 14.117 h 5.727 a 7.476 7.476 0 0 1 7.483 7.483 c 0 4.139 -3.345 7.513 -7.483 7.513 h -5.727 v 14.117 h 5.727 c 4.139 0 7.483 3.373 7.483 7.512 s -3.345 7.483 -7.483 7.483 h -5.727 v 9.27 c 0 4.139 -3.373 7.483 -7.512 7.483 s -7.512 -3.345 -7.512 -7.483 v -9.27 h -5.726 a 7.476 7.476 0 0 1 -7.483 -7.483 c 0 -4.139 3.345 -7.512 7.483 -7.512 h 5.726 v -14.117 h -5.726 c -4.139 0 -7.483 -3.374 -7.483 -7.513 a 7.476 7.476 0 0 1 7.483 -7.483 h 5.726 V 263.71 h -5.726 c -4.139 0 -7.483 -3.373 -7.483 -7.512 s 3.345 -7.512 7.483 -7.512 h 5.726 v -14.117 h -5.726 c -4.139 0 -7.483 -3.344 -7.483 -7.482 s 3.345 -7.512 7.483 -7.512 h 5.726 v -14.118 z M 312.24 390.165 h 73.844 v -18.964 H 312.24 z m 0 14.996 v 21.43 c 7.427 4.025 16.044 7.257 24.576 7.257 c 7.541 0 15.846 -2.495 24.463 -7.172 c 8.192 -4.45 16.611 -10.828 24.805 -18.879 v -2.636 z m -14.939 -57.176 h -0.028 c 0 -1.758 -0.709 -3.345 -1.871 -4.507 s -2.75 -1.899 -4.507 -1.899 H 211.41 c -1.758 0 -3.345 0.737 -4.507 1.899 c -1.163 1.162 -1.899 2.749 -1.899 4.507 v 79.484 c 0 1.758 0.736 3.345 1.899 4.507 a 6.34 6.34 0 0 0 4.507 1.871 h 79.484 a 6.342 6.342 0 0 0 4.507 -1.871 c 1.19 -1.19 1.899 -2.806 1.899 -4.507 l 0.001 -79.484 z m 117.498 -206.79 c -4.054 -6.774 -8.362 -13.125 -12.841 -18.964 H 271.704 a 197.77 197.77 0 0 0 -12.869 18.964 z m -25.71 -33.96 c -12.757 -13.237 -32.911 -29.083 -52.272 -29.083 c -15.676 0 -34.554 10.715 -52.243 29.083 z M 243.641 385.262 c 0 -4.14 3.374 -7.484 7.513 -7.484 c 4.138 0 7.512 3.345 7.512 7.484 v 4.903 a 7.507 7.507 0 0 1 -7.512 7.512 a 7.507 7.507 0 0 1 -7.513 -7.512 z m 22.536 20.891 c 0 -4.139 3.373 -7.484 7.512 -7.484 s 7.512 3.346 7.512 7.484 v 4.932 c 0 4.139 -3.373 7.484 -7.512 7.484 s -7.512 -3.346 -7.512 -7.484 z m -45.072 -41.784 c 0 -4.139 3.373 -7.512 7.512 -7.512 s 7.483 3.373 7.483 7.512 v 4.904 c 0 4.139 -3.345 7.512 -7.483 7.512 s -7.512 -3.373 -7.512 -7.512 z m 45.072 0 c 0 -4.139 3.373 -7.512 7.512 -7.512 s 7.512 3.373 7.512 7.512 v 4.904 c 0 4.139 -3.373 7.512 -7.512 7.512 s -7.512 -3.373 -7.512 -7.512 z m -45.072 41.784 c 0 -4.139 3.373 -7.484 7.512 -7.484 s 7.483 3.346 7.483 7.484 v 4.932 c 0 4.139 -3.345 7.484 -7.483 7.484 s -7.512 -3.346 -7.512 -7.484 z m 49.862 -79.569 a 124.244 124.244 0 0 0 1.588 -14.117 H 151.4 v 47.764 c 6.974 0.312 13.918 0.992 20.807 2.098 c 6.037 0.936 11.99 2.184 17.802 3.714 v -18.057 a 21.24 21.24 0 0 1 6.293 -15.108 a 21.242 21.242 0 0 1 15.108 -6.293 h 59.557 z m -80.958 54.963 a 165.069 165.069 0 0 0 -20.098 -4.45 a 156.972 156.972 0 0 0 -18.511 -1.843 v 58.396 c 6.35 -0.369 12.558 -1.162 18.567 -2.41 a 128.141 128.141 0 0 0 20.041 -5.895 v -43.798 z M 45.923 221.19 a 131.327 131.327 0 0 0 -14.628 20.948 c -9.241 16.526 -14.939 35.291 -16.072 55.332 h 121.154 v -47.764 a 179.963 179.963 0 0 1 -46.518 -8.079 c -15.561 -4.846 -30.301 -11.763 -43.936 -20.437 z m -30.7 91.277 c 1.672 29.055 12.954 55.502 30.728 76.281 c 13.606 -8.675 28.347 -15.592 43.908 -20.438 a 179.955 179.955 0 0 1 46.518 -8.079 v -47.764 z m 41.33 87.28 c 21.26 19.587 49.096 32.116 79.824 33.902 v -58.396 a 166.24 166.24 0 0 0 -42.039 7.342 a 169.873 169.873 0 0 0 -37.785 17.152 z M 151.4 176.289 v 58.395 a 166.631 166.631 0 0 0 42.066 -7.342 a 170.113 170.113 0 0 0 37.759 -17.15 c -21.289 -19.617 -49.154 -32.118 -79.825 -33.903 z m 90.455 44.901 c -13.635 8.674 -28.375 15.591 -43.938 20.438 a 179.955 179.955 0 0 1 -46.517 8.079 v 47.764 h 121.154 c -1.672 -29.083 -12.953 -55.531 -30.699 -76.281 z m 255.149 76.763 v -18.964 h -95.925 v 18.964 h 30.982 c 4.139 0 7.512 3.374 7.512 7.512 c 0 4.139 -3.373 7.484 -7.512 7.484 h -30.982 v 18.992 h 95.925 v -18.992 H 466.05 c -4.168 0 -7.513 -3.346 -7.513 -7.484 s 3.345 -7.512 7.513 -7.512 z M 432.061 365.9 c 4.139 0 7.512 3.373 7.512 7.512 s -3.373 7.483 -7.512 7.483 h -30.982 v 18.993 h 95.925 v -18.993 H 466.05 c -4.168 0 -7.513 -3.345 -7.513 -7.483 s 3.345 -7.512 7.513 -7.512 h 30.954 v -18.964 h -95.925 V 365.9 z m 64.943 48.984 h -95.925 v 18.964 h 95.925 z" stroke-linecap="round"/>
</g>
</g>
</g>
</svg>